<svg width="555" height="345" viewBox="0 0 555 345" fill="none" xmlns="http://www.w3.org/2000/svg">
<g clip-path="url(#clip0_2_16)">
<rect width="555" height="345" fill="white"/>
<g style="mix-blend-mode:multiply" filter="url(#filter0_f_2_16)">
<path fill-rule="evenodd" clip-rule="evenodd" d="M723.282 57.0378C728.168 63.4762 732.656 70.1075 736.745 76.9317C740.899 83.6654 744.685 90.5467 748.105 97.5757C751.589 104.514 754.89 111.527 758.008 118.613C760.886 125.666 763.788 132.871 766.714 140.229C769.465 147.462 772.184 154.741 774.871 162.066C777.733 169.513 780.626 176.916 783.552 184.273C786.588 191.845 789.864 199.45 793.378 207.087C796.653 214.692 800.167 222.33 803.92 230.001C807.434 237.639 811.012 245.186 814.653 252.643C818.231 260.19 821.666 267.569 824.959 274.779C828.362 282.203 831.415 289.379 834.119 296.309C836.648 303.114 838.883 309.78 840.824 316.305C842.59 322.707 843.8 328.783 844.453 334.534C845.106 340.285 845.084 345.693 844.386 350.76C843.688 355.826 842.226 360.488 840.002 364.746C837.952 369.128 835.259 373.123 831.922 376.73C828.474 380.123 824.644 383.314 820.433 386.304C815.983 389.259 811.128 391.861 805.868 394.109C800.672 396.266 795.127 398.176 789.232 399.839C783.337 401.501 777.124 402.872 770.593 403.95C764.238 405.151 757.716 406.032 751.027 406.591C744.164 407.027 737.246 407.356 730.272 407.578C723.362 407.71 716.364 407.78 709.279 407.788C702.084 407.581 694.888 407.375 687.692 407.169C680.497 406.963 673.301 406.757 666.105 406.551C658.91 406.345 651.682 406.184 644.422 406.069C637.163 405.953 630.014 406.051 622.976 406.364C615.938 406.676 608.892 407.186 601.837 407.893C594.782 408.6 587.87 409.476 581.101 410.521C574.268 411.656 567.458 412.943 560.672 414.383C553.95 415.732 547.14 417.02 540.243 418.245C533.521 419.594 526.656 420.775 519.648 421.786C512.64 422.798 505.553 423.55 498.387 424.044C491.158 424.627 483.706 424.783 476.033 424.51C468.424 424.147 460.593 423.357 452.54 422.138C444.662 421.042 436.452 419.305 427.909 416.926C419.365 414.546 410.752 411.711 402.068 408.418C393.209 405.002 384.367 401.191 375.542 396.985C366.718 392.779 357.822 388.117 348.857 382.998C340.13 377.912 331.507 372.493 322.989 366.741C314.471 360.99 306.144 354.966 298.009 348.672C289.939 342.287 282.147 335.693 274.635 328.89C267.122 322.086 260.009 315.09 253.293 307.9C246.578 300.711 240.11 293.358 233.889 285.84C227.668 278.322 221.631 270.731 215.776 263.066C209.986 255.31 204.315 247.571 198.763 239.848C193.101 231.912 187.438 223.975 181.776 216.039C176.113 208.102 170.419 200.211 164.692 192.365C158.791 184.395 152.826 176.516 146.797 168.727C140.529 160.905 134.078 153.157 127.443 145.482C120.634 137.684 113.729 130.022 106.728 122.495C99.9021 115.092 92.9246 107.717 85.7958 100.371C78.7309 92.9345 71.8088 85.6669 65.0296 78.568C58.0756 71.3456 51.4157 64.2634 45.05 57.3214C38.5734 50.1653 32.5104 43.1661 26.8609 36.3236C21.1474 29.5715 15.9434 22.8407 11.2487 16.131C6.55411 9.42126 2.42433 2.83975 -1.14059 -3.6136C-4.64159 -10.1574 -7.57775 -16.5729 -9.94906 -22.8603C-12.3204 -29.1477 -14.1588 -35.2617 -15.4643 -41.2024C-16.7059 -47.2334 -17.4146 -53.091 -17.5905 -58.7753C-17.7663 -64.4596 -17.5606 -69.9419 -16.9733 -75.2221C-16.1473 -80.4692 -14.9397 -85.5144 -13.3505 -90.3575C-11.6975 -95.291 -9.63939 -99.8703 -7.17626 -104.095C-4.6492 -108.411 -1.80451 -112.434 1.35782 -116.165C4.52015 -119.896 8.0321 -123.379 11.8936 -126.615C15.5804 -129.975 19.6167 -133.088 24.0026 -135.954C28.2137 -138.943 32.5997 -141.808 37.1604 -144.55C41.7211 -147.292 46.2818 -150.034 50.8425 -152.776C55.5781 -155.395 60.2581 -158.12 64.8828 -160.952C69.4435 -163.694 73.9808 -166.588 78.4945 -169.635C83.0083 -172.681 87.2599 -175.913 91.2493 -179.33C95.4774 -182.714 99.5307 -186.222 103.409 -189.853C107.177 -193.698 110.912 -197.498 114.616 -201.253C118.384 -205.098 122.175 -208.791 125.989 -212.332C129.693 -216.086 133.627 -219.611 137.791 -222.904C141.717 -226.231 145.96 -229.265 150.521 -232.007C155.017 -234.659 159.8 -236.973 164.868 -238.949C170.111 -240.802 175.663 -242.165 181.524 -243.038C187.386 -243.911 193.763 -244.216 200.656 -243.953C207.549 -243.689 214.751 -242.936 222.262 -241.693C229.774 -240.45 237.507 -238.78 245.462 -236.681C253.655 -234.548 261.983 -232.05 270.445 -229.186C278.971 -226.412 287.632 -223.271 296.427 -219.765C305.222 -216.258 314.096 -212.492 323.048 -208.467C332.001 -204.442 340.89 -200.327 349.715 -196.121C358.65 -191.702 367.522 -187.191 376.33 -182.591C385.138 -177.99 393.937 -173.192 402.728 -168.197C411.583 -163.292 420.374 -158.296 429.101 -153.21C437.828 -148.125 446.491 -142.948 455.09 -137.682C463.928 -132.382 472.702 -126.992 481.412 -121.511C490.186 -116.121 499.015 -110.623 507.9 -105.019C516.61 -99.5386 525.494 -93.9343 534.554 -88.2065C543.439 -82.6022 552.411 -76.9362 561.471 -71.2083C570.53 -65.4805 579.558 -59.7075 588.553 -53.8892C597.549 -48.0709 606.393 -42.2241 615.086 -36.3486C623.843 -30.5635 632.385 -24.6595 640.711 -18.6364C649.038 -12.6133 657.062 -6.53299 664.783 -0.395464C672.504 5.74206 679.922 11.9368 687.038 18.1888C694.09 24.5312 700.601 30.8975 706.57 37.288C712.714 43.802 718.284 50.3853 723.282 57.0378Z" fill="#1B47E6"/>
<path fill-rule="evenodd" clip-rule="evenodd" d="M688.795 384.579C689.149 388.898 688.724 393.208 687.518 397.509C686.138 401.686 684.041 405.763 681.229 409.741C678.352 413.81 674.847 417.84 670.712 421.833C666.403 425.702 661.64 429.657 656.423 433.698C651.096 437.525 645.378 441.347 639.27 445.165C633.098 449.073 626.568 452.931 619.68 456.74C612.792 460.548 605.633 464.369 598.204 468.201C591.013 472.067 583.552 475.945 575.82 479.835C568.326 483.758 560.801 487.726 553.244 491.739C545.687 495.752 538.217 499.828 530.834 503.965C523.452 508.102 516.276 512.317 509.307 516.611C502.338 520.904 495.695 525.293 489.379 529.777C482.887 534.137 476.809 538.654 471.145 543.328C465.48 548.001 460.174 552.725 455.226 557.498C450.103 562.148 445.218 566.831 440.573 571.547C436.102 576.386 431.727 581.09 427.448 585.659C423.344 590.351 419.335 594.907 415.423 599.328C411.51 603.749 407.749 608.141 404.14 612.505C400.419 616.654 396.675 620.652 392.907 624.497C389.378 628.375 385.826 632.101 382.25 635.675C378.563 639.035 374.853 642.243 371.119 645.298C367.45 648.264 363.614 650.908 359.611 653.231C355.609 655.554 351.44 657.556 347.105 659.237C342.945 661.042 338.476 662.357 333.697 663.182C329.03 664.221 324.14 664.832 319.029 665.015C313.743 665.074 308.323 664.768 302.768 664.095C297.15 663.512 291.429 662.518 285.606 661.113C279.544 659.674 273.403 657.976 267.183 656.019C261.027 653.972 254.792 651.665 248.478 649.1C242.165 646.534 235.717 643.602 229.134 640.303C222.663 637.219 216.231 633.892 209.841 630.323C203.339 626.539 196.902 622.666 190.528 618.701C184.218 614.647 178.004 610.456 171.886 606.13C165.594 601.681 159.516 597.112 153.654 592.425C147.728 587.828 141.961 583.004 136.355 577.955C130.684 572.996 125.284 568.026 120.155 563.043C115.09 557.97 110.208 552.823 105.51 547.602C100.875 542.291 96.479 537.013 92.3217 531.768C88.2284 526.432 84.3738 521.13 80.758 515.862C76.9673 510.469 73.3599 505.003 69.9358 499.463C66.5118 493.923 63.1836 488.247 59.9513 482.435C56.8298 476.838 53.6849 471.089 50.5166 465.187C47.523 459.409 44.5059 453.478 41.4654 447.396C38.3609 441.404 35.233 435.259 32.0816 428.963C28.9302 422.666 25.6914 416.308 22.3652 409.888C19.1029 403.377 15.6339 396.788 11.9581 390.121C8.34619 383.363 4.55952 376.482 0.598048 369.477C-3.36343 362.472 -7.61905 355.327 -12.1688 348.041C-16.7186 340.756 -21.4433 333.347 -26.3426 325.814C-31.4168 318.158 -36.8172 310.407 -42.5436 302.561C-48.2061 294.625 -54.1628 286.548 -60.4136 278.331C-66.6645 270.114 -73.0347 261.881 -79.5242 253.631C-86.0138 245.38 -92.5908 237.069 -99.2551 228.695C-105.856 220.231 -112.488 211.812 -119.152 203.438C-125.817 195.064 -132.394 186.753 -138.883 178.503C-145.309 170.162 -151.472 162.007 -157.374 154.037C-163.45 145.944 -169.231 137.991 -174.719 130.178C-180.143 122.275 -185.217 114.618 -189.942 107.209C-194.602 99.7101 -198.794 92.4745 -202.517 85.5028C-206.414 78.4074 -209.668 71.6994 -212.278 65.3789C-214.999 58.8443 -217.044 52.6518 -218.414 46.8016C-219.783 40.9514 -220.445 35.3982 -220.399 30.1419C-220.417 24.976 -219.64 20.169 -218.068 15.7207C-216.496 11.2724 -214.28 7.21149 -211.42 3.53797C-208.497 -0.225954 -204.929 -3.60251 -200.718 -6.59166C-196.746 -9.614 -192.098 -12.2941 -186.774 -14.6321C-181.689 -17.0033 -176.079 -19.0037 -169.945 -20.6332C-163.811 -22.2628 -157.24 -23.5834 -150.232 -24.595C-143.224 -25.6066 -135.986 -26.3876 -128.518 -26.938C-120.939 -27.2743 -113.042 -27.3183 -104.827 -27.0699C-96.6127 -26.8215 -88.1999 -26.2973 -79.5889 -25.4972C-71.1526 -24.8208 -62.4946 -23.7164 -53.6148 -22.1839C-44.8459 -20.8655 -35.9981 -19.2878 -27.0714 -17.451C-18.0338 -15.4001 -9.03667 -13.1066 -0.0799848 -10.5705C8.76583 -8.24844 17.6266 -5.57676 26.5024 -2.55545C35.3782 0.465875 44.2135 3.72981 53.0084 7.23636C61.6285 10.6193 70.3274 14.2615 79.1053 18.1629C87.8193 22.1546 96.4694 26.2368 105.055 30.4094C113.816 34.7056 122.569 39.1992 131.313 43.8902C140.121 48.4908 148.92 53.2888 157.711 58.2842C166.566 63.1892 175.476 68.2013 184.442 73.3203C193.518 78.6533 202.682 84.0481 211.934 89.5048C221.01 94.8378 230.349 100.356 239.95 106.06C249.376 111.64 258.922 117.237 268.586 122.85C278.362 128.678 288.289 134.477 298.368 140.247C308.382 146.107 318.635 152.001 329.127 157.928C339.683 163.765 350.446 169.68 361.415 175.673C372.274 181.453 383.339 187.31 394.611 193.246C405.947 199.092 417.283 204.938 428.619 210.784C440.194 216.663 451.681 222.48 463.081 228.235C474.481 233.99 485.761 239.729 496.922 245.451C508.083 251.173 519.038 256.817 529.785 262.382C540.708 268.071 551.185 273.649 561.216 279.115C571.423 284.704 581.183 290.182 590.499 295.548C599.814 300.914 608.739 306.276 617.274 311.633C625.571 316.957 633.303 322.152 640.469 327.22C647.572 332.378 653.991 337.391 659.725 342.259C665.57 347.342 670.525 352.201 674.588 356.837C678.762 361.687 682.101 366.421 684.604 371.039C686.868 375.623 688.265 380.137 688.795 384.579Z" fill="#6197FF"/>
<path fill-rule="evenodd" clip-rule="evenodd" d="M310.448 222.159C316.789 228.722 322.927 235.714 328.863 243.136C334.96 250.568 340.888 258.358 346.647 266.506C352.407 274.654 357.998 283.16 363.42 292.024C368.749 300.736 374.023 309.739 379.243 319.033C384.302 328.318 389.179 337.813 393.875 347.518C398.732 357.233 403.407 367.157 407.9 377.292C412.461 387.284 416.746 397.333 420.757 407.439C424.861 417.698 428.851 428.024 432.726 438.417C436.508 448.657 440.176 458.964 443.73 469.337C447.19 479.558 450.57 489.774 453.869 499.986C457.008 510.187 460.019 520.308 462.903 530.347C465.693 540.234 468.356 550.039 470.892 559.764C473.335 569.335 475.684 578.753 477.94 588.019C480.102 597.132 482.123 606.015 484.005 614.67C485.726 623.315 487.387 631.735 488.988 639.931C490.495 647.974 491.863 655.787 493.09 663.372C494.317 670.956 495.277 678.23 495.969 685.194C496.823 692.167 497.489 698.834 497.968 705.196C498.447 711.558 498.786 717.691 498.985 723.594C499.184 729.497 499.196 735.095 499.021 740.387C498.939 745.832 498.624 750.894 498.075 755.575C497.619 760.408 497.023 765.012 496.287 769.387C495.458 773.609 494.488 777.602 493.378 781.366C492.175 784.977 490.878 788.434 489.487 791.74C488.003 794.892 486.379 797.815 484.615 800.509C482.689 803.193 480.704 805.652 478.659 807.888C476.521 809.97 474.289 811.9 471.964 813.676C469.384 815.291 466.745 816.681 464.045 817.846C461.346 819.011 458.426 819.943 455.285 820.64C452.145 821.337 448.944 821.81 445.684 822.059C442.263 822.297 438.621 822.302 434.759 822.073C430.896 821.844 426.94 821.462 422.891 820.927C418.841 820.392 414.618 819.699 410.22 818.849C405.755 818.142 401.15 817.206 396.405 816.041C391.499 814.866 386.546 813.615 381.546 812.287C376.385 810.95 371.017 809.526 365.441 808.017C359.932 806.365 354.262 804.702 348.432 803.031C342.601 801.359 336.483 799.597 330.076 797.744C323.83 795.9 317.423 794.047 310.856 792.184C304.288 790.322 297.479 788.445 290.428 786.553C283.284 784.509 276.026 782.532 268.653 780.622C261.375 778.864 253.807 777.016 245.952 775.077C238.19 773.29 230.187 771.49 221.943 769.675C213.698 767.86 205.42 766.117 197.108 764.445C188.541 762.611 179.941 760.849 171.307 759.158C162.419 757.305 153.531 755.452 144.642 753.599C135.754 751.746 126.819 749.816 117.837 747.81C108.949 745.957 100.047 743.956 91.1329 741.807C82.125 739.505 73.1977 737.208 64.3507 734.915C55.4103 732.47 46.6178 729.886 37.9733 727.163C29.2613 724.584 20.6504 721.79 12.1407 718.781C3.53759 715.62 -4.83716 712.324 -12.9835 708.895C-21.1973 705.609 -29.2425 701.965 -37.1191 697.963C-44.9022 694.113 -52.4231 690.058 -59.682 685.798C-67.0343 681.385 -74.1712 676.69 -81.0928 671.713C-87.8535 666.746 -94.3987 661.497 -100.729 655.966C-106.898 650.445 -112.69 644.652 -118.107 638.586C-123.616 632.368 -128.83 625.872 -133.748 619.1C-138.506 612.337 -143.048 605.292 -147.374 597.965C-151.539 590.648 -155.316 583.207 -158.703 575.642C-162.344 567.914 -165.642 559.986 -168.599 551.857C-171.622 543.871 -174.256 535.761 -176.501 527.527C-178.907 519.284 -181.004 510.911 -182.792 502.41C-184.741 493.899 -186.288 485.412 -187.432 476.948C-188.738 468.475 -189.768 459.945 -190.523 451.358C-191.345 442.914 -191.926 434.484 -192.266 426.068C-192.606 417.653 -192.657 409.328 -192.421 401.094C-192.345 392.85 -192.015 384.769 -191.43 376.85C-190.846 368.932 -190.007 361.175 -188.913 353.581C-187.981 345.978 -186.874 338.532 -185.594 331.243C-184.22 324.108 -182.706 317.201 -181.052 310.524C-179.304 304 -177.416 297.705 -175.388 291.64C-173.453 285.421 -171.284 279.585 -168.882 274.13C-166.412 268.533 -163.883 263.16 -161.294 258.011C-158.45 253.025 -155.593 248.186 -152.724 243.496C-149.693 238.816 -146.476 234.441 -143.071 230.371C-139.599 226.159 -135.987 222.176 -132.234 218.422C-128.736 214.505 -124.937 210.827 -120.837 207.389C-116.804 204.093 -112.563 200.884 -108.115 197.76C-103.828 194.627 -99.3195 191.728 -94.5908 189.063C-89.9555 186.245 -85.0658 183.589 -79.9217 181.096C-74.9385 178.593 -69.7814 176.248 -64.4503 174.061C-59.1192 171.873 -53.5804 169.772 -47.834 167.756C-42.2485 165.731 -36.4552 163.792 -30.4544 161.939C-24.4535 160.086 -18.2786 158.39 -11.9298 156.852C-5.51356 155.171 0.949468 153.566 7.45921 152.038C14.2234 150.672 20.9875 149.306 27.7516 147.94C34.7702 146.736 41.8356 145.609 48.9477 144.558C55.9923 143.651 63.1641 142.824 70.4632 142.079C77.8557 141.487 85.2612 141.043 92.6798 140.747C100.098 140.45 107.577 140.379 115.115 140.532C122.653 140.684 130.217 141.133 137.807 141.878C145.304 142.471 152.827 143.359 160.375 144.543C167.924 145.728 175.546 147.285 183.24 149.214C190.68 150.981 198.112 153.116 205.537 155.619C212.868 157.969 220.238 160.763 227.647 164.001C235.056 167.239 242.296 170.836 249.368 174.79C256.44 178.745 263.471 183.139 270.46 187.972C277.449 192.806 284.189 197.992 290.679 203.533C297.425 209.235 304.014 215.444 310.448 222.159Z" fill="#415ADF"/>
</g>
</g>
<defs>
<filter id="filter0_f_2_16" x="-224.402" y="-248.044" width="1073.33" height="1074.29" filterUnits="userSpaceOnUse" color-interpolation-filters="sRGB">
<feFlood flood-opacity="0" result="BackgroundImageFix"/>
<feBlend mode="normal" in="SourceGraphic" in2="BackgroundImageFix" result="shape"/>
<feGaussianBlur stdDeviation="2" result="effect1_foregroundBlur_2_16"/>
</filter>
<clipPath id="clip0_2_16">
<rect width="555" height="345" fill="white"/>
</clipPath>
</defs>
</svg>
