<?xml version="1.0" encoding="UTF-8"?>
<!DOCTYPE svg PUBLIC "-//W3C//DTD SVG 1.1//EN"
  "http://www.w3.org/Graphics/SVG/1.1/DTD/svg11.dtd">
<!-- Created with Inkpad (http://www.taptrix.com/) --><svg xmlns:inkpad="http://taptrix.com/inkpad/svg_extensions" height="195pt" xmlns:xlink="http://www.w3.org/1999/xlink" xmlns="http://www.w3.org/2000/svg" width="555pt" version="1.1" viewBox="0,0,555,195">
<defs>
<path d="M555+195L0+195L0+195L0+0L0+0L555+0L555+0L555+195L555+195Z" id="Mask"/>
</defs>
<g id="Untitled" inkpad:layerName="Untitled">
<g opacity="1" inkpad:mask="#Mask">
<clipPath id="ClipPath">
<use xlink:href="#Mask" fill="none" overflow="visible"/>
</clipPath>
<g clip-path="url(#ClipPath)">
<g opacity="1">
<path d="M0+0L555+0L555+0L555+195L555+195L0+195L0+195L0+0L0+0Z" opacity="1" fill="#ff0000"/>
<g opacity="1">
<path d="M901.638+200.116C898.135+202.844+894.074+205.496+889.456+208.073C884.998+210.65+880.061+213.15+874.647+215.575C869.393+218.001+863.899+220.388+858.166+222.737C852.275+225.011+846.224+227.322+840.014+229.671C833.804+231.945+827.514+234.218+821.144+236.492C814.775+238.841+808.485+241.191+802.275+243.54C795.906+245.965+789.695+248.466+783.644+251.042C777.434+253.543+771.383+256.12+765.492+258.772C759.441+261.349+753.549+263.926+747.816+266.502C741.925+269.079+736.113+271.58+730.38+274.005C724.489+276.506+718.597+278.855+712.705+281.053C706.813+283.175+700.842+285.183+694.791+287.078C688.74+288.897+682.61+290.488+676.4+291.852C670.189+293.216+663.82+294.315+657.291+295.149C650.763+295.982+644.075+296.513+637.228+296.74C630.38+297.043+623.454+297.081+616.447+296.854C609.6+296.551+602.674+296.096+595.667+295.49C588.502+294.808+581.416+293.936+574.409+292.875C567.562+291.814+560.715+290.602+553.868+289.238C547.021+287.873+540.253+286.358+533.565+284.691C526.878+283.099+520.429+281.394+514.218+279.575C508.008+277.681+501.878+275.748+495.827+273.778C489.935+271.807+484.043+269.799+478.152+267.753C472.419+265.631+466.687+263.509+460.954+261.387C455.222+259.265+449.489+257.143+443.757+255.021C438.024+252.899+432.212+250.777+426.321+248.655C420.429+246.533+414.378+244.487+408.168+242.517C401.958+240.546+395.509+238.614+388.821+236.719C382.133+234.825+375.365+233.006+368.518+231.263C361.512+229.52+354.346+227.815+347.021+226.147C339.856+224.48+332.69+222.775+325.525+221.032C318.359+219.365+311.273+217.622+304.267+215.803C297.26+213.984+290.493+212.089+283.964+210.119C277.276+208.149+270.907+206.027+264.856+203.753C258.964+201.48+253.391+199.055+248.136+196.478C242.882+193.977+238.104+191.249+233.805+188.293C229.506+185.338+225.684+182.268+222.34+179.086C218.996+175.827+216.13+172.492+213.742+169.082C211.353+165.672+209.442+162.148+208.009+158.51C206.735+154.948+205.939+151.349+205.621+147.711C205.302+144.073+205.461+140.436+206.098+136.798C206.894+133.16+208.168+129.561+209.92+125.999C211.671+122.437+213.98+118.951+216.847+115.541C219.713+112.13+222.977+108.758+226.64+105.423C230.302+102.089+234.203+98.7923+238.343+95.5336C242.643+92.2749+247.022+89.0541+251.48+85.8712C256.098+82.6125+260.716+79.3537+265.334+76.095C269.952+72.8363+274.49+69.5776+278.948+66.3189C283.407+62.9844+287.706+59.6499+291.846+56.3154C295.827+52.9051+299.569+49.4569+303.072+45.9709C306.576+42.409+309.84+38.8472+312.865+35.2853C315.891+31.7993+318.757+28.2753+321.464+24.7135C324.33+21.1516+327.117+17.6655+329.824+14.2553C332.531+10.7692+335.318+7.39681+338.184+4.1381C341.209+0.803599+344.394-2.37933+347.738-5.41069C350.923-8.44205+354.505-11.3218+358.486-14.0501C362.467-16.7783+366.767-19.3171+371.384-21.6664C376.161-24.0157+381.257-26.1755+386.671-28.1459C392.085-30.1163+397.738-31.8972+403.63-33.4887C409.68-35.0801+415.97-36.4821+422.499-37.6947C429.028-38.9072+435.636-39.9682+442.324-40.8776C449.171-41.7112+456.098-42.3933+463.104-42.9238C470.269-43.4543+477.355-43.7953+484.362-43.9469C491.527-44.0984+498.613-44.0984+505.62-43.9469C512.626-43.7953+519.632-43.4922+526.639-43.0375C533.645-42.6585+540.651-42.1281+547.658-41.446C554.664-40.8397+561.671-40.1577+568.677-39.3998C575.683-38.642+582.69-37.8841+589.696-37.1263C596.702-36.2927+603.788-35.4969+610.954-34.7391C617.96-33.9813+625.126-33.2613+632.451-32.5793C639.775-31.8972+647.1-31.3288+654.425-30.8741C661.909-30.3436+669.393-29.8889+676.877-29.51C684.52-29.2069+692.084-28.9037+699.568-28.6006C707.211-28.2975+714.696-27.9564+722.02-27.5775C729.504-27.2744+736.909-26.8576+744.234-26.3271C751.399-25.8724+758.485-25.2661+765.492-24.5083C772.339-23.7504+779.027-22.841+785.555-21.78C792.084-20.6433+798.294-19.3171+804.186-17.8014C810.078-16.2857+815.73-14.5048+821.144-12.4586C826.558-10.4124+831.654-8.17681+836.431-5.75172C841.208-3.32663+845.667-0.749975+849.807+1.97825C854.106+4.78226+858.087+7.69994+861.749+10.7313C865.571+13.7627+869.074+16.9077+872.259+20.1664C875.444+23.4251+878.389+26.7596+881.096+30.1699C883.803+33.5802+886.351+36.9905+888.74+40.4008C890.969+43.8868+893.039+47.3729+894.95+50.8589C896.861+54.345+898.533+57.869+899.966+61.4308C901.558+64.9927+902.991+68.5545+904.265+72.1164C905.539+75.6782+906.654+79.2401+907.609+82.8019C908.724+86.4395+909.679+90.0772+910.475+93.7148C911.431+97.3524+912.306+101.028+913.103+104.741C913.899+108.379+914.695+112.092+915.491+115.882C916.287+119.595+917.084+123.346+917.88+127.136C918.676+130.925+919.392+134.714+920.029+138.503C920.666+142.292+921.144+146.044+921.462+149.757C921.94+153.471+922.099+157.146+921.94+160.784C921.781+164.421+921.303+167.983+920.507+171.469C919.711+174.955+918.596+178.366+917.163+181.7C915.571+185.035+913.501+188.217+910.953+191.249C908.405+194.356+905.3+197.312+901.638+200.116Z" fill-rule="evenodd" fill="#1b47e6" opacity="1"/>
<path d="M488.396+257.089C483.618+258.074+478.204+258.832+472.154+259.362C466.103+259.817+459.574+260.044+452.568+260.044C445.402+260.044+437.759+259.855+429.638+259.476C421.517+259.021+412.918+258.453+403.842+257.771C394.924+257.013+385.689+256.141+376.135+255.156C366.421+254.171+356.469+253.072+346.278+251.86C336.087+250.647+325.657+249.359+314.988+247.995C304.479+246.706+293.73+245.342+282.743+243.902C271.915+242.538+261.008+241.174+250.02+239.81C239.033+238.446+228.046+237.12+217.059+235.831C206.071+234.543+195.164+233.33+184.336+232.194C173.508+231.057+162.839+230.034+152.33+229.124C141.82+228.139+131.47+227.306+121.279+226.624C111.088+225.942+101.135+225.373+91.4221+224.918C81.7087+224.388+72.1546+223.933+62.7598+223.554C53.3649+223.251+44.2088+222.948+35.2917+222.645C26.3745+222.418+17.6962+222.19+9.25669+221.963C0.817225+221.736-7.46299+221.546-15.584+221.394C-23.5458+221.167-31.3483+220.902-38.9916+220.599C-46.4756+220.371-53.8004+220.106-60.966+219.803C-67.9724+219.424-74.8195+219.007-81.5074+218.553C-88.036+218.098-94.3258+217.53-100.377+216.847C-106.428+216.165-112.24+215.37-117.813+214.46C-123.386+213.627-128.641+212.604-133.577+211.391C-138.673+210.254-143.45+208.966-147.908+207.526C-152.367+206.01-156.507+204.381-160.329+202.638C-164.31+200.895-167.893+199.038-171.077+197.068C-174.421+195.022-177.526+192.9-180.392+190.702C-183.099+188.504-185.568+186.231-187.797+183.881C-190.026+181.532-191.937+179.069-193.529+176.492C-195.281+173.992-196.714+171.453-197.829+168.876C-198.784+166.224-199.58+163.571-200.217+160.919C-200.695+158.266-200.934+155.614-200.934+152.962C-200.934+150.233-200.615+147.543-199.978+144.891C-199.501+142.238-198.625+139.586-197.351+136.933C-196.236+134.281-194.883+131.704-193.291+129.203C-191.539+126.702-189.548+124.239-187.319+121.814C-184.931+119.389-182.383+117.04-179.676+114.766C-176.81+112.493-173.784+110.295-170.6+108.173C-167.415+105.975-163.991+103.816-160.329+101.694C-156.666+99.5717-152.765+97.4497-148.625+95.3278C-144.644+93.2816-140.504+91.1975-136.205+89.0756C-131.905+87.0294-127.447+84.9454-122.829+82.8234C-118.37+80.7015-113.753+78.5416-108.975+76.3439C-104.198+74.1461-99.4214+71.9105-94.6443+69.637C-89.708+67.3635-84.8513+65.0142-80.0743+62.5891C-75.138+60.164-70.2017+57.6631-65.2654+55.0865C-60.3291+52.5098-55.4724+49.8195-50.6954+47.0155C-45.9183+44.2114-41.1412+41.3316-36.3642+38.3761C-31.5871+35.3447-26.9693+32.1997-22.5107+28.941C-17.8929+25.6823-13.3547+22.3099-8.8961+18.8238C-4.43752+15.3377-0.0585471+11.8138+4.2408+8.25192C8.54016+4.69007+12.8395+1.09033+17.1388-2.5473C21.5974-6.18493+25.9764-9.82256+30.2758-13.4602C34.5751-17.0978+38.8744-20.6976+43.1738-24.2594C47.6324-27.8213+52.091-31.2694+56.5496-34.6039C61.0082-38.0142+65.5463-41.3108+70.1642-44.4938C74.9412-47.6767+79.7183-50.708+84.4953-53.5878C89.4316-56.4676+94.4476-59.158+99.5431-61.6588C104.639-64.2355+109.814-66.5469+115.069-68.5931C120.483-70.715+126.056-72.5717+131.788-74.1632C137.521-75.7547+143.492-77.0809+149.702-78.1419C155.753-79.2028+162.043-79.9607+168.572-80.4154C175.1-80.8701+181.708-81.0595+188.396-80.9838C195.243-80.908+202.17-80.5669+209.177-79.9607C216.024-79.4302+223.03-78.6345+230.196-77.5735C237.202-76.5883+244.208-75.3757+251.215-73.9358C258.221-72.4959+265.227-70.8666+272.234-69.0478C279.24-67.229+286.167-65.2965+293.014-63.2503C299.702-61.1283+306.31-58.8548+312.839-56.4297C319.367-54.0046+325.737-51.4659+331.947-48.8134C338.157-46.2368+344.049-43.5086+349.622-40.6288C355.354-37.8248+360.848-34.945+366.103-31.9894C371.198-28.958+375.975-25.8888+380.434-22.7816C385.052-19.7503+389.272-16.6431+393.093-13.4602C396.915-10.2773+400.418-7.05645+403.603-3.79773C406.787-0.614806+409.733+2.64391+412.44+5.9784C414.988+9.3129+417.377+12.6474+419.606+15.9819C421.835+19.3922+423.826+22.8403+425.577+26.3264C427.488+29.8125+429.16+33.3364+430.593+36.8983C432.185+40.4601+433.698+44.0599+435.131+47.6975C436.405+51.4109+437.679+55.1622+438.953+58.9514C440.227+62.6649+441.501+66.4919+442.775+70.4327C444.049+74.2977+445.402+78.2006+446.835+82.1413C448.109+86.1579+449.542+90.2123+451.134+94.3047C452.568+98.397+454.16+102.565+455.912+106.809C457.822+111.053+459.813+115.373+461.883+119.768C464.112+124.088+466.421+128.483+468.81+132.955C471.357+137.426+473.905+141.897+476.453+146.368C479.16+150.915+481.867+155.425+484.574+159.896C487.281+164.367+489.908+168.8+492.456+173.196C495.004+177.591+497.472+181.911+499.86+186.155C502.249+190.475+504.399+194.643+506.31+198.659C508.22+202.752+509.892+206.692+511.325+210.482C512.759+214.271+513.873+217.946+514.669+221.508C515.306+224.994+515.625+228.291+515.625+231.398C515.466+234.505+514.908+237.385+513.953+240.037C512.838+242.766+511.246+245.191+509.176+247.313C506.946+249.51+504.16+251.443+500.816+253.11C497.313+254.702+493.173+256.028+488.396+257.089Z" fill-rule="evenodd" fill="#6197ff" opacity="1"/>
<path d="M364.981+114.537C362.539+117.711+359.425+120.914+355.639+124.147C351.974+127.428+347.749+130.734+342.963+134.063C338.178+137.393+332.832+140.748+326.925+144.127C321.12+147.448+314.927+150.812+308.348+154.22C301.645+157.58+294.546+160.93+287.049+164.271C279.674+167.66+271.901+171.04+263.731+174.41C255.786+177.77+247.544+181.063+239.007+184.287C230.368+187.57+221.555+190.834+212.57+194.078C203.686+197.264+194.629+200.431+185.398+203.578C176.269+206.667+167.08+209.732+157.828+212.772C148.455+215.764+139.071+218.703+129.677+221.588C120.385+224.416+111.082+227.189+101.769+229.91C92.5585+232.572+83.4495+235.176+74.4422+237.721C65.5368+240.209+56.7841+242.609+48.1842+244.921C39.4619+247.185+30.9535+249.386+22.6592+251.524C14.4667+253.604+6.4269+255.596-1.46009+257.501C-9.34708+259.405-17.0916+261.169-24.6936+262.793C-32.1732+264.464-39.4492+266.02-46.5214+267.458C-53.5937+268.897-60.5131+270.248-67.2798+271.512C-74.0466+272.776-80.6096+273.924-86.9689+274.955C-93.4301+276.044-99.6367+276.987-105.589+277.785C-111.642+278.642-117.544+279.41-123.292+280.092C-128.938+280.715-134.432+281.251-139.773+281.699C-145.012+282.089-150.149+282.421-155.184+282.694C-160.118+282.91-164.899+283.038-169.527+283.078C-174.277+283.07-178.814+282.999-183.136+282.865C-187.357+282.673-191.476+282.422-195.493+282.113C-199.53+281.697-203.354+281.218-206.963+280.676C-210.573+280.134-214.091+279.481-217.517+278.715C-220.944+277.95-224.156+277.122-227.155+276.23C-230.276+275.29-233.305+274.238-236.243+273.075C-239.181+271.912-242.016+270.69-244.751+269.411C-247.485+268.131-250.178+266.768-252.831+265.324C-255.708+263.889-258.432+262.366-261.004+260.757C-263.698+259.098-266.341+257.411-268.933+255.694C-271.648+253.93-274.434+252.087-277.291+250.167C-279.924+248.237-282.68+246.258-285.558+244.232C-288.436+242.205-291.447+240.076-294.59+237.845C-297.611+235.663-300.755+233.433-304.021+231.154C-307.287+228.875-310.736+226.523-314.369+224.099C-317.9+221.616-321.605+219.114-325.483+216.593C-329.463+214.13-333.575+211.565-337.82+208.898C-342.167+206.289-346.698+203.608-351.412+200.854C-356.126+198.1-360.952+195.351-365.891+192.607C-370.85+189.756-375.921+186.91-381.104+184.069C-386.308+181.121-391.512+178.174-396.716+175.226C-401.92+172.278-407.073+169.301-412.175+166.295C-417.378+163.347-422.419+160.365-427.297+157.349C-432.073+154.275-436.787+151.225-441.441+148.2C-445.993+145.116-450.259+142.047-454.24+138.992C-458.444+135.946-462.313+132.886-465.845+129.812C-469.276+126.679-472.359+123.585-475.096+120.529C-478.058+117.484-480.458+114.414-482.299+111.319C-484.24+108.283-485.724+105.28-486.748+102.311C-487.67+99.2842-488.083+96.2619-487.986+93.2441C-487.767+90.2749-487.038+87.3103-485.799+84.3504C-484.438+81.4389-482.445+78.5806-479.819+75.7754C-477.092+72.9119-473.794+70.0774-469.925+67.2717C-465.933+64.5145-461.432+61.762-456.421+59.0141C-451.288+56.3147-445.686+53.7024-439.614+51.1773C-433.563+48.5455-426.992+45.9717-419.902+43.4559C-413.035+40.9499-405.699+38.5311-397.895+36.1994C-390.212+33.8192-382.122+31.502-373.624+29.2477C-365.248+26.9449-356.567+24.7633-347.579+22.7028C-338.714+20.5939-329.553+18.5528-320.096+16.5795C-310.863+14.616-301.447+12.7252-291.848+10.9071C-282.248+9.08899-272.515+7.37273-262.65+5.7583C-252.908+4.0954-243.144+2.53922-233.361+1.08977C-223.577-0.359672-213.772-1.7024-203.947-2.93839C-194.245-4.22285-184.583-5.42482-174.962-6.5443C-165.442-7.60552-156.076-8.57936-146.862-9.46581C-137.75-10.294-128.79-11.0348-119.984-11.6882C-111.075-12.3999-102.422-12.9659-94.0225-13.3863C-85.3991-13.8165-76.9896-14.1835-68.7942-14.4874C-60.5781-14.6846-52.5252-14.8477-44.6352-14.9768C-36.6229-15.0574-28.8142-15.0216-21.2092-14.8692C-13.38-14.7266-5.70356-14.4966+1.82013-14.1792C9.32326-13.9685+16.796-13.622+24.2385-13.1397C31.4566-12.6475+38.7463-12.0778+46.1074-11.4304C53.3461-10.8316+60.4933-10.1211+67.5489-9.29894C74.7064-8.53508+81.8844-7.6645+89.083-6.68719C96.1591-5.75835+103.195-4.74701+110.19-3.65319C117.184-2.55936+124.251-1.38795+131.389-0.138926C138.404+1.06163+145.491+2.3398+152.65+3.69555C159.808+5.0513+166.926+6.48954+174.003+8.01027C181.304+9.52122+188.555+11.0613+195.754+12.6305C202.975+14.3065+210.195+15.9824+217.415+17.6583C224.656+19.4409+231.845+21.2527+238.984+23.0937C245.899+24.9444+252.824+26.8484+259.759+28.8059C266.592+30.8215+273.262+32.8713+279.77+34.955C286.277+37.0387+292.57+39.1856+298.649+41.3956C304.729+43.6057+310.482+45.8838+315.909+48.2299C321.438+50.5177+326.641+52.8737+331.517+55.2976C336.394+57.7216+340.894+60.2427+345.017+62.861C349.119+65.3726+352.783+67.9571+356.008+70.6145C359.336+73.2137+362.174+75.915+364.524+78.7183C366.873+81.5217+368.662+84.3494+369.89+87.2017C371.118+90.054+371.795+92.9841+371.923+95.992C372.05+98.9999+371.555+102.008+370.439+105.016C369.343+108.132+367.524+111.305+364.981+114.537Z" fill-rule="evenodd" fill="#415adf" opacity="1"/>
</g>
</g>
</g>
</g>
</g>
</svg>
