<?xml version="1.0" encoding="UTF-8"?>
<!DOCTYPE svg PUBLIC "-//W3C//DTD SVG 1.1//EN"
  "http://www.w3.org/Graphics/SVG/1.1/DTD/svg11.dtd">
<!-- Created with Inkpad (http://www.taptrix.com/) --><svg xmlns:inkpad="http://taptrix.com/inkpad/svg_extensions" height="195pt" xmlns:xlink="http://www.w3.org/1999/xlink" xmlns="http://www.w3.org/2000/svg" width="555pt" version="1.1" viewBox="0,0,555,195">
<defs>
<path d="M-9.11951e-06-2.73585e-05L555-2.73585e-05L555-2.73585e-05L555+195L555+195L-9.11951e-06+195L-9.11951e-06+195L-9.11951e-06-2.73585e-05L-9.11951e-06-2.73585e-05Z" id="Mask"/>
</defs>
<g id="Untitled" inkpad:layerName="Untitled">
<g opacity="1" inkpad:mask="#Mask">
<clipPath id="ClipPath">
<use xlink:href="#Mask" fill="none" overflow="visible"/>
</clipPath>
<g clip-path="url(#ClipPath)">
<g opacity="1">
<path d="M-1-1L554-1L554-1L554+194L554+194L-1+194L-1+194L-1-1L-1-1Z" opacity="1" fill="#ff0000"/>
<g opacity="1">
<path d="M900.638+199.116C897.135+201.844+893.074+204.496+888.456+207.073C883.998+209.65+879.061+212.15+873.647+214.575C868.393+217.001+862.899+219.388+857.166+221.737C851.275+224.011+845.224+226.322+839.014+228.671C832.804+230.945+826.514+233.218+820.144+235.492C813.775+237.841+807.485+240.191+801.275+242.54C794.906+244.965+788.695+247.466+782.644+250.042C776.434+252.543+770.383+255.12+764.492+257.772C758.441+260.349+752.549+262.926+746.816+265.502C740.925+268.079+735.113+270.58+729.38+273.005C723.489+275.506+717.597+277.855+711.705+280.053C705.813+282.175+699.842+284.183+693.791+286.078C687.74+287.897+681.61+289.488+675.4+290.852C669.189+292.216+662.82+293.315+656.291+294.149C649.763+294.982+643.075+295.513+636.228+295.74C629.38+296.043+622.454+296.081+615.447+295.854C608.6+295.551+601.674+295.096+594.667+294.49C587.502+293.808+580.416+292.936+573.409+291.875C566.562+290.814+559.715+289.602+552.868+288.238C546.021+286.873+539.253+285.358+532.565+283.691C525.878+282.099+519.429+280.394+513.218+278.575C507.008+276.681+500.878+274.748+494.827+272.778C488.935+270.807+483.043+268.799+477.152+266.753C471.419+264.631+465.687+262.509+459.954+260.387C454.222+258.265+448.489+256.143+442.757+254.021C437.024+251.899+431.212+249.777+425.321+247.655C419.429+245.533+413.378+243.487+407.168+241.517C400.958+239.546+394.509+237.614+387.821+235.719C381.133+233.825+374.365+232.006+367.518+230.263C360.512+228.52+353.346+226.815+346.021+225.147C338.856+223.48+331.69+221.775+324.525+220.032C317.359+218.365+310.273+216.622+303.267+214.803C296.26+212.984+289.493+211.089+282.964+209.119C276.276+207.149+269.907+205.027+263.856+202.753C257.964+200.48+252.391+198.055+247.136+195.478C241.882+192.977+237.104+190.249+232.805+187.293C228.506+184.338+224.684+181.268+221.34+178.086C217.996+174.827+215.13+171.492+212.742+168.082C210.353+164.672+208.442+161.148+207.009+157.51C205.735+153.948+204.939+150.349+204.621+146.711C204.302+143.073+204.461+139.436+205.098+135.798C205.894+132.16+207.168+128.561+208.92+124.999C210.671+121.437+212.98+117.951+215.847+114.541C218.713+111.13+221.977+107.758+225.64+104.423C229.302+101.089+233.203+97.7923+237.343+94.5336C241.643+91.2749+246.022+88.0541+250.48+84.8712C255.098+81.6125+259.716+78.3537+264.334+75.095C268.952+71.8363+273.49+68.5776+277.948+65.3189C282.407+61.9844+286.706+58.6499+290.846+55.3154C294.827+51.9051+298.569+48.4569+302.072+44.9709C305.576+41.409+308.84+37.8472+311.865+34.2853C314.891+30.7993+317.757+27.2753+320.464+23.7135C323.33+20.1516+326.117+16.6655+328.824+13.2553C331.531+9.7692+334.318+6.39681+337.184+3.1381C340.209-0.196401+343.394-3.37933+346.738-6.41069C349.923-9.44205+353.505-12.3218+357.486-15.0501C361.467-17.7783+365.767-20.3171+370.384-22.6664C375.161-25.0157+380.257-27.1755+385.671-29.1459C391.085-31.1163+396.738-32.8972+402.63-34.4887C408.68-36.0801+414.97-37.4821+421.499-38.6947C428.028-39.9072+434.636-40.9682+441.324-41.8776C448.171-42.7112+455.098-43.3933+462.104-43.9238C469.269-44.4543+476.355-44.7953+483.362-44.9469C490.527-45.0984+497.613-45.0984+504.62-44.9469C511.626-44.7953+518.632-44.4922+525.639-44.0375C532.645-43.6585+539.651-43.1281+546.658-42.446C553.664-41.8397+560.671-41.1577+567.677-40.3998C574.683-39.642+581.69-38.8841+588.696-38.1263C595.702-37.2927+602.788-36.4969+609.954-35.7391C616.96-34.9813+624.126-34.2613+631.451-33.5793C638.775-32.8972+646.1-32.3288+653.425-31.8741C660.909-31.3436+668.393-30.8889+675.877-30.51C683.52-30.2069+691.084-29.9037+698.568-29.6006C706.211-29.2975+713.696-28.9564+721.02-28.5775C728.504-28.2744+735.909-27.8576+743.234-27.3271C750.399-26.8724+757.485-26.2661+764.492-25.5083C771.339-24.7504+778.027-23.841+784.555-22.78C791.084-21.6433+797.294-20.3171+803.186-18.8014C809.078-17.2857+814.73-15.5048+820.144-13.4586C825.558-11.4124+830.654-9.17681+835.431-6.75172C840.208-4.32663+844.667-1.74998+848.807+0.97825C853.106+3.78226+857.087+6.69994+860.749+9.7313C864.571+12.7627+868.074+15.9077+871.259+19.1664C874.444+22.4251+877.389+25.7596+880.096+29.1699C882.803+32.5802+885.351+35.9905+887.74+39.4008C889.969+42.8868+892.039+46.3729+893.95+49.8589C895.861+53.345+897.533+56.869+898.966+60.4308C900.558+63.9927+901.991+67.5545+903.265+71.1164C904.539+74.6782+905.654+78.2401+906.609+81.8019C907.724+85.4395+908.679+89.0772+909.475+92.7148C910.431+96.3524+911.306+100.028+912.103+103.741C912.899+107.379+913.695+111.092+914.491+114.882C915.287+118.595+916.084+122.346+916.88+126.136C917.676+129.925+918.392+133.714+919.029+137.503C919.666+141.292+920.144+145.044+920.462+148.757C920.94+152.471+921.099+156.146+920.94+159.784C920.781+163.421+920.303+166.983+919.507+170.469C918.711+173.955+917.596+177.366+916.163+180.7C914.571+184.035+912.501+187.217+909.953+190.249C907.405+193.356+904.3+196.312+900.638+199.116Z" fill-rule="evenodd" fill="#1b47e6" opacity="1"/>
<path d="M487.396+256.089C482.618+257.074+477.204+257.832+471.154+258.362C465.103+258.817+458.574+259.044+451.568+259.044C444.402+259.044+436.759+258.855+428.638+258.476C420.517+258.021+411.918+257.453+402.842+256.771C393.924+256.013+384.689+255.141+375.135+254.156C365.421+253.171+355.469+252.072+345.278+250.86C335.087+249.647+324.657+248.359+313.988+246.995C303.479+245.706+292.73+244.342+281.743+242.902C270.915+241.538+260.008+240.174+249.02+238.81C238.033+237.446+227.046+236.12+216.059+234.831C205.071+233.543+194.164+232.33+183.336+231.194C172.508+230.057+161.839+229.034+151.33+228.124C140.82+227.139+130.47+226.306+120.279+225.624C110.088+224.942+100.135+224.373+90.4221+223.918C80.7087+223.388+71.1546+222.933+61.7598+222.554C52.3649+222.251+43.2088+221.948+34.2917+221.645C25.3745+221.418+16.6962+221.19+8.25669+220.963C-0.182775+220.736-8.46299+220.546-16.584+220.394C-24.5458+220.167-32.3483+219.902-39.9916+219.599C-47.4756+219.371-54.8004+219.106-61.966+218.803C-68.9724+218.424-75.8195+218.007-82.5074+217.553C-89.036+217.098-95.3258+216.53-101.377+215.847C-107.428+215.165-113.24+214.37-118.813+213.46C-124.386+212.627-129.641+211.604-134.577+210.391C-139.673+209.254-144.45+207.966-148.908+206.526C-153.367+205.01-157.507+203.381-161.329+201.638C-165.31+199.895-168.893+198.038-172.077+196.068C-175.421+194.022-178.526+191.9-181.392+189.702C-184.099+187.504-186.568+185.231-188.797+182.881C-191.026+180.532-192.937+178.069-194.529+175.492C-196.281+172.992-197.714+170.453-198.829+167.876C-199.784+165.224-200.58+162.571-201.217+159.919C-201.695+157.266-201.934+154.614-201.934+151.962C-201.934+149.233-201.615+146.543-200.978+143.891C-200.501+141.238-199.625+138.586-198.351+135.933C-197.236+133.281-195.883+130.704-194.291+128.203C-192.539+125.702-190.548+123.239-188.319+120.814C-185.931+118.389-183.383+116.04-180.676+113.766C-177.81+111.493-174.784+109.295-171.6+107.173C-168.415+104.975-164.991+102.816-161.329+100.694C-157.666+98.5717-153.765+96.4497-149.625+94.3278C-145.644+92.2816-141.504+90.1975-137.205+88.0756C-132.905+86.0294-128.447+83.9454-123.829+81.8234C-119.37+79.7015-114.753+77.5416-109.975+75.3439C-105.198+73.1461-100.421+70.9105-95.6443+68.637C-90.708+66.3635-85.8513+64.0142-81.0743+61.5891C-76.138+59.164-71.2017+56.6631-66.2654+54.0865C-61.3291+51.5098-56.4724+48.8195-51.6954+46.0155C-46.9183+43.2114-42.1412+40.3316-37.3642+37.3761C-32.5871+34.3447-27.9693+31.1997-23.5107+27.941C-18.8929+24.6823-14.3547+21.3099-9.8961+17.8238C-5.43752+14.3377-1.05855+10.8138+3.2408+7.25192C7.54016+3.69007+11.8395+0.09033+16.1388-3.5473C20.5974-7.18493+24.9764-10.8226+29.2758-14.4602C33.5751-18.0978+37.8744-21.6976+42.1738-25.2594C46.6324-28.8213+51.091-32.2694+55.5496-35.6039C60.0082-39.0142+64.5463-42.3108+69.1642-45.4938C73.9412-48.6767+78.7183-51.708+83.4953-54.5878C88.4316-57.4676+93.4476-60.158+98.5431-62.6588C103.639-65.2355+108.814-67.5469+114.069-69.5931C119.483-71.715+125.056-73.5717+130.788-75.1632C136.521-76.7547+142.492-78.0809+148.702-79.1419C154.753-80.2028+161.043-80.9607+167.572-81.4154C174.1-81.8701+180.708-82.0595+187.396-81.9838C194.243-81.908+201.17-81.5669+208.177-80.9607C215.024-80.4302+222.03-79.6345+229.196-78.5735C236.202-77.5883+243.208-76.3757+250.215-74.9358C257.221-73.4959+264.227-71.8666+271.234-70.0478C278.24-68.229+285.167-66.2965+292.014-64.2503C298.702-62.1283+305.31-59.8548+311.839-57.4297C318.367-55.0046+324.737-52.4659+330.947-49.8134C337.157-47.2368+343.049-44.5086+348.622-41.6288C354.354-38.8248+359.848-35.945+365.103-32.9894C370.198-29.958+374.975-26.8888+379.434-23.7816C384.052-20.7503+388.272-17.6431+392.093-14.4602C395.915-11.2773+399.418-8.05645+402.603-4.79773C405.787-1.61481+408.733+1.64391+411.44+4.9784C413.988+8.3129+416.377+11.6474+418.606+14.9819C420.835+18.3922+422.826+21.8403+424.577+25.3264C426.488+28.8125+428.16+32.3364+429.593+35.8983C431.185+39.4601+432.698+43.0599+434.131+46.6975C435.405+50.4109+436.679+54.1622+437.953+57.9514C439.227+61.6649+440.501+65.4919+441.775+69.4327C443.049+73.2977+444.402+77.2006+445.835+81.1413C447.109+85.1579+448.542+89.2123+450.134+93.3047C451.568+97.397+453.16+101.565+454.912+105.809C456.822+110.053+458.813+114.373+460.883+118.768C463.112+123.088+465.421+127.483+467.81+131.955C470.357+136.426+472.905+140.897+475.453+145.368C478.16+149.915+480.867+154.425+483.574+158.896C486.281+163.367+488.908+167.8+491.456+172.196C494.004+176.591+496.472+180.911+498.86+185.155C501.249+189.475+503.399+193.643+505.31+197.659C507.22+201.752+508.892+205.692+510.325+209.482C511.759+213.271+512.873+216.946+513.669+220.508C514.306+223.994+514.625+227.291+514.625+230.398C514.466+233.505+513.908+236.385+512.953+239.037C511.838+241.766+510.246+244.191+508.176+246.313C505.946+248.51+503.16+250.443+499.816+252.11C496.313+253.702+492.173+255.028+487.396+256.089Z" fill-rule="evenodd" fill="#6197ff" opacity="1"/>
<path d="M363.981+113.537C361.539+116.711+358.425+119.914+354.639+123.147C350.974+126.428+346.749+129.734+341.963+133.063C337.178+136.393+331.832+139.748+325.925+143.127C320.12+146.448+313.927+149.812+307.348+153.22C300.645+156.58+293.546+159.93+286.049+163.271C278.674+166.66+270.901+170.04+262.731+173.41C254.786+176.77+246.544+180.063+238.007+183.287C229.368+186.57+220.555+189.834+211.57+193.078C202.686+196.264+193.629+199.431+184.398+202.578C175.269+205.667+166.08+208.732+156.828+211.772C147.455+214.764+138.071+217.703+128.677+220.588C119.385+223.416+110.082+226.189+100.769+228.91C91.5585+231.572+82.4495+234.176+73.4422+236.721C64.5368+239.209+55.7841+241.609+47.1842+243.921C38.4619+246.185+29.9535+248.386+21.6592+250.524C13.4667+252.604+5.4269+254.596-2.46009+256.501C-10.3471+258.405-18.0916+260.169-25.6936+261.793C-33.1732+263.464-40.4492+265.02-47.5214+266.458C-54.5937+267.897-61.5131+269.248-68.2798+270.512C-75.0466+271.776-81.6096+272.924-87.9689+273.955C-94.4301+275.044-100.637+275.987-106.589+276.785C-112.642+277.642-118.544+278.41-124.292+279.092C-129.938+279.715-135.432+280.251-140.773+280.699C-146.012+281.089-151.149+281.421-156.184+281.694C-161.118+281.91-165.899+282.038-170.527+282.078C-175.277+282.07-179.814+281.999-184.136+281.865C-188.357+281.673-192.476+281.422-196.493+281.113C-200.53+280.697-204.354+280.218-207.963+279.676C-211.573+279.134-215.091+278.481-218.517+277.715C-221.944+276.95-225.156+276.122-228.155+275.23C-231.276+274.29-234.305+273.238-237.243+272.075C-240.181+270.912-243.016+269.69-245.751+268.411C-248.485+267.131-251.178+265.768-253.831+264.324C-256.708+262.889-259.432+261.366-262.004+259.757C-264.698+258.098-267.341+256.411-269.933+254.694C-272.648+252.93-275.434+251.087-278.291+249.167C-280.924+247.237-283.68+245.258-286.558+243.232C-289.436+241.205-292.447+239.076-295.59+236.845C-298.611+234.663-301.755+232.433-305.021+230.154C-308.287+227.875-311.736+225.523-315.369+223.099C-318.9+220.616-322.605+218.114-326.483+215.593C-330.463+213.13-334.575+210.565-338.82+207.898C-343.167+205.289-347.698+202.608-352.412+199.854C-357.126+197.1-361.952+194.351-366.891+191.607C-371.85+188.756-376.921+185.91-382.104+183.069C-387.308+180.121-392.512+177.174-397.716+174.226C-402.92+171.278-408.073+168.301-413.175+165.295C-418.378+162.347-423.419+159.365-428.297+156.349C-433.073+153.275-437.787+150.225-442.441+147.2C-446.993+144.116-451.259+141.047-455.24+137.992C-459.444+134.946-463.313+131.886-466.845+128.812C-470.276+125.679-473.359+122.585-476.096+119.529C-479.058+116.484-481.458+113.414-483.299+110.319C-485.24+107.283-486.724+104.28-487.748+101.311C-488.67+98.2842-489.083+95.2619-488.986+92.2441C-488.767+89.2749-488.038+86.3103-486.799+83.3504C-485.438+80.4389-483.445+77.5806-480.819+74.7754C-478.092+71.9119-474.794+69.0774-470.925+66.2717C-466.933+63.5145-462.432+60.762-457.421+58.0141C-452.288+55.3147-446.686+52.7024-440.614+50.1773C-434.563+47.5455-427.992+44.9717-420.902+42.4559C-414.035+39.9499-406.699+37.5311-398.895+35.1994C-391.212+32.8192-383.122+30.502-374.624+28.2477C-366.248+25.9449-357.567+23.7633-348.579+21.7028C-339.714+19.5939-330.553+17.5528-321.096+15.5795C-311.863+13.616-302.447+11.7252-292.848+9.9071C-283.248+8.08899-273.515+6.37273-263.65+4.7583C-253.908+3.0954-244.144+1.53922-234.361+0.08977C-224.577-1.35967-214.772-2.7024-204.947-3.93839C-195.245-5.22285-185.583-6.42482-175.962-7.5443C-166.442-8.60552-157.076-9.57936-147.862-10.4658C-138.75-11.294-129.79-12.0348-120.984-12.6882C-112.075-13.3999-103.422-13.9659-95.0225-14.3863C-86.3991-14.8165-77.9896-15.1835-69.7942-15.4874C-61.5781-15.6846-53.5252-15.8477-45.6352-15.9768C-37.6229-16.0574-29.8142-16.0216-22.2092-15.8692C-14.38-15.7266-6.70356-15.4966+0.82013-15.1792C8.32326-14.9685+15.796-14.622+23.2385-14.1397C30.4566-13.6475+37.7463-13.0778+45.1074-12.4304C52.3461-11.8316+59.4933-11.1211+66.5489-10.2989C73.7064-9.53508+80.8844-8.6645+88.083-7.68719C95.1591-6.75835+102.195-5.74701+109.19-4.65319C116.184-3.55936+123.251-2.38795+130.389-1.13893C137.404+0.06163+144.491+1.3398+151.65+2.69555C158.808+4.0513+165.926+5.48954+173.003+7.01027C180.304+8.52122+187.555+10.0613+194.754+11.6305C201.975+13.3065+209.195+14.9824+216.415+16.6583C223.656+18.4409+230.845+20.2527+237.984+22.0937C244.899+23.9444+251.824+25.8484+258.759+27.8059C265.592+29.8215+272.262+31.8713+278.77+33.955C285.277+36.0387+291.57+38.1856+297.649+40.3956C303.729+42.6057+309.482+44.8838+314.909+47.2299C320.438+49.5177+325.641+51.8737+330.517+54.2976C335.394+56.7216+339.894+59.2427+344.017+61.861C348.119+64.3726+351.783+66.9571+355.008+69.6145C358.336+72.2137+361.174+74.915+363.524+77.7183C365.873+80.5217+367.662+83.3494+368.89+86.2017C370.118+89.054+370.795+91.9841+370.923+94.992C371.05+97.9999+370.555+101.008+369.439+104.016C368.343+107.132+366.524+110.305+363.981+113.537Z" fill-rule="evenodd" fill="#415adf" opacity="1"/>
</g>
</g>
</g>
</g>
</g>
</svg>
