<svg width="387" height="387" viewBox="0 0 387 387" fill="none" xmlns="http://www.w3.org/2000/svg">
<path d="M326.767 192.76C326.767 265.953 267.432 325.288 194.238 325.288C121.045 325.288 61.7095 265.953 61.7096 192.76C61.7096 119.566 121.045 60.2308 194.238 60.2308C267.432 60.2308 326.767 119.566 326.767 192.76Z" fill="#3792E7"/>
<path d="M346.98 77.3176C336.309 63.2441 323.747 50.6861 309.677 40.0181L280.373 54.6355L246.399 73.0043C257.789 78.0124 268.334 84.5883 277.761 92.4587C277.761 92.4587 279.023 93.5224 279.647 94.063L288.279 102.256C288.279 102.256 308.008 126.752 314.312 141.334L333.371 104.597L346.98 77.3176Z" fill="#3792E7"/>
<path fill-rule="evenodd" clip-rule="evenodd" d="M384.189 167.131L351.134 156.082C347.095 139.016 340.39 122.986 331.433 108.482L333.371 104.597L314.312 141.334C321.227 157.328 325.06 174.966 325.06 193.5C325.06 266.164 266.155 325.065 193.494 325.065C120.834 325.065 61.9295 266.163 61.9295 193.5C61.9295 174.966 65.7617 157.328 72.6768 141.334L54.7249 106.802L55.563 108.482C46.603 122.986 39.89 139.016 35.858 156.082L2.80401 167.131C1.62451 175.752 0.998015 184.554 0.998013 193.5C0.998012 202.446 1.62101 211.249 2.804 219.869L35.858 230.919C39.8935 247.985 46.603 264.015 55.5595 278.519L40.0195 309.683C50.684 323.756 63.242 336.314 77.3155 346.982L108.48 331.435C122.984 340.395 139.014 347.108 156.076 351.144L167.126 384.19C175.75 385.374 184.548 386 193.498 386C202.447 386 211.243 385.374 219.87 384.19L230.92 351.144C247.982 347.108 264.013 340.395 278.513 331.439L309.681 346.982C323.751 336.314 336.312 323.756 346.977 309.683L331.437 278.519C340.393 264.015 347.099 247.985 351.138 230.919L384.192 219.869C385.372 211.249 385.998 202.446 385.998 193.5C385.998 184.554 385.371 175.752 384.189 167.131ZM105.33 53.9957L141.638 72.5489C157.551 65.7179 175.081 61.935 193.495 61.935C212.313 61.935 230.21 65.8862 246.399 73.0043L280.373 54.6355L278.51 55.5651C264.009 46.6051 247.979 39.8921 230.917 35.8566L219.867 2.80611C211.243 1.62661 202.444 1.00004 193.495 1.00003C184.545 1.00003 175.75 1.62661 167.122 2.80611L156.073 35.8566C139.01 39.8921 122.98 46.6051 108.476 55.5651L105.33 53.9957Z" fill="#393939"/>
<path d="M77.312 40.018C63.2385 50.686 50.6806 63.2441 40.016 77.3176L54.7249 106.802L72.6768 141.334C86.0025 110.513 110.777 85.7977 141.638 72.5489L105.33 53.9957L77.312 40.018Z" fill="#3792E7"/>
<path d="M119.634 181.654C132.942 182.85 149.708 205.527 145.434 214.921C145.091 215.674 144.562 216.403 143.952 217.012C137.143 223.804 102.126 218.673 98.0502 210.3C97.8655 209.92 97.7699 209.507 97.5932 209.124C84.9181 181.65 84.922 181.645 119.634 181.654Z" fill="#393939"/>
<path d="M262.92 181.654C249.612 182.85 232.846 205.527 237.12 214.921C237.463 215.674 237.992 216.403 238.602 217.012C245.411 223.804 280.428 218.673 284.503 210.3C284.688 209.92 284.784 209.507 284.961 209.124C297.636 181.65 297.632 181.645 262.92 181.654Z" fill="#393939"/>
<path d="M194.337 249.809C193.151 251.303 190.883 251.303 189.698 249.809L181.724 239.764C180.183 237.824 181.565 234.962 184.043 234.962L199.991 234.962C202.469 234.962 203.851 237.824 202.311 239.764L194.337 249.809Z" fill="#393939"/>
<path fill-rule="evenodd" clip-rule="evenodd" d="M115.859 89.5733C118.173 87.2602 118.197 83.4413 115.449 81.6677C104.967 74.9048 90.9969 75.9735 82.0034 84.967C73.01 93.9604 71.9412 107.931 78.7042 118.412C80.4778 121.161 84.2967 121.136 86.6098 118.823L115.859 89.5733Z" fill="#393939"/>
<path fill-rule="evenodd" clip-rule="evenodd" d="M299.494 118.823C301.807 121.136 305.626 121.161 307.399 118.412C314.162 107.931 313.094 93.9605 304.1 84.967C295.107 75.9735 281.136 74.9048 270.655 81.6678C267.906 83.4413 267.931 87.2602 270.244 89.5733L299.494 118.823Z" fill="#393939"/>
<path d="M347.204 77.4292L347.273 77.2903L347.179 77.1666C336.494 63.0749 323.916 50.5007 309.828 39.8189L309.704 39.7251L309.566 39.7944L280.261 54.4117L280.258 54.4136L280.254 54.4156L278.522 55.2793C264.069 46.3656 248.101 39.6796 231.11 35.6454L220.104 2.72685L220.055 2.57948L219.901 2.55842C211.266 1.37743 202.456 0.750035 193.495 0.750034C184.533 0.750032 175.727 1.37743 167.088 2.55841L166.934 2.57946L166.885 2.72684L155.88 35.6454C138.888 39.6796 122.92 46.3656 108.463 55.2793L105.444 53.773L105.442 53.772L77.4236 39.7943L77.2847 39.725L77.161 39.8188C63.0693 50.5006 50.4951 63.0749 39.8168 77.1666L39.7231 77.2903L39.7923 77.4292L54.5012 106.913L54.5022 106.915L54.5031 106.917L55.2772 108.469C46.3636 122.926 39.6775 138.893 35.6468 155.889L2.72475 166.894L2.57739 166.943L2.55632 167.097C1.37533 175.729 0.748015 184.542 0.748013 193.5C0.748012 202.458 1.37182 211.272 2.55633 219.903L2.57744 220.057L2.72474 220.106L35.6468 231.112C39.6809 248.107 46.3635 264.074 55.2737 278.531L39.7958 309.571L39.7265 309.71L39.8203 309.834C50.4986 323.925 63.0728 336.499 77.1645 347.181L77.2882 347.275L77.4271 347.206L108.467 331.721C122.924 340.635 138.891 347.321 155.883 351.355L166.888 384.27L166.938 384.417L167.092 384.438C175.726 385.623 184.537 386.25 193.498 386.25C202.459 386.25 211.266 385.623 219.904 384.438L220.058 384.417L220.108 384.27L231.113 351.355C248.105 347.321 264.072 340.635 278.526 331.724L309.569 347.206L309.708 347.275L309.832 347.181C323.92 336.5 336.497 323.925 347.176 309.834L347.27 309.71L347.2 309.571L331.722 278.531C340.633 264.074 347.312 248.107 351.349 231.112L384.271 220.106L384.419 220.057L384.44 219.903C385.621 211.272 386.248 202.458 386.248 193.5C386.248 184.542 385.621 175.729 384.436 167.097L384.415 166.943L384.268 166.894L351.346 155.889C347.308 138.893 340.629 122.926 331.719 108.469L333.593 104.713L333.595 104.709L347.204 77.4292Z" stroke="black" stroke-width="0.5"/>
</svg>
