<svg width="599" height="342" viewBox="0 0 599 342" fill="none" xmlns="http://www.w3.org/2000/svg">
<g style="mix-blend-mode:multiply" filter="url(#filter0_f_2_7)">
<path fill-rule="evenodd" clip-rule="evenodd" d="M586.468 251.8C585.002 254.2 583.302 256.533 581.368 258.8C579.502 261.067 577.435 263.267 575.168 265.4C572.968 267.533 570.668 269.633 568.268 271.7C565.802 273.7 563.268 275.733 560.668 277.8C558.068 279.8 555.435 281.8 552.768 283.8C550.102 285.867 547.468 287.933 544.868 290C542.202 292.133 539.602 294.333 537.068 296.6C534.468 298.8 531.935 301.067 529.468 303.4C526.935 305.667 524.468 307.933 522.068 310.2C519.602 312.467 517.168 314.667 514.768 316.8C512.302 319 509.835 321.067 507.368 323C504.902 324.867 502.402 326.633 499.868 328.3C497.335 329.9 494.768 331.3 492.168 332.5C489.568 333.7 486.902 334.667 484.168 335.4C481.435 336.133 478.635 336.6 475.768 336.8C472.902 337.067 470.002 337.1 467.068 336.9C464.202 336.633 461.302 336.233 458.368 335.7C455.368 335.1 452.402 334.333 449.468 333.4C446.602 332.467 443.735 331.4 440.868 330.2C438.002 329 435.168 327.667 432.368 326.2C429.568 324.8 426.868 323.3 424.268 321.7C421.668 320.033 419.102 318.333 416.568 316.6C414.102 314.867 411.635 313.1 409.168 311.3C406.768 309.433 404.368 307.567 401.968 305.7C399.568 303.833 397.168 301.967 394.768 300.1C392.368 298.233 389.935 296.367 387.468 294.5C385.002 292.633 382.468 290.833 379.868 289.1C377.268 287.367 374.568 285.667 371.768 284C368.968 282.333 366.135 280.733 363.268 279.2C360.335 277.667 357.335 276.167 354.268 274.7C351.268 273.233 348.268 271.733 345.268 270.2C342.268 268.733 339.302 267.2 336.368 265.6C333.435 264 330.602 262.333 327.868 260.6C325.068 258.867 322.402 257 319.868 255C317.402 253 315.068 250.867 312.868 248.6C310.668 246.4 308.668 244 306.868 241.4C305.068 238.8 303.468 236.1 302.068 233.3C300.668 230.433 299.468 227.5 298.468 224.5C297.468 221.5 296.668 218.4 296.068 215.2C295.535 212.067 295.202 208.9 295.068 205.7C294.935 202.5 295.002 199.3 295.268 196.1C295.602 192.9 296.135 189.733 296.868 186.6C297.602 183.467 298.568 180.4 299.768 177.4C300.968 174.4 302.335 171.433 303.868 168.5C305.402 165.567 307.035 162.667 308.768 159.8C310.568 156.933 312.402 154.1 314.268 151.3C316.202 148.433 318.135 145.567 320.068 142.7C322.002 139.833 323.902 136.967 325.768 134.1C327.635 131.167 329.435 128.233 331.168 125.3C332.835 122.3 334.402 119.267 335.868 116.2C337.335 113.067 338.702 109.933 339.968 106.8C341.235 103.733 342.435 100.633 343.568 97.5C344.768 94.3667 345.935 91.3 347.068 88.3C348.202 85.2333 349.368 82.2667 350.568 79.4C351.835 76.4667 353.168 73.6667 354.568 71C355.902 68.3333 357.402 65.8 359.068 63.4C360.735 61 362.535 58.7667 364.468 56.7C366.468 54.6333 368.602 52.7333 370.868 51C373.135 49.2667 375.502 47.7 377.968 46.3C380.502 44.9 383.135 43.6667 385.868 42.6C388.602 41.5333 391.368 40.6 394.168 39.8C397.035 39.0667 399.935 38.4667 402.868 38C405.868 37.5333 408.835 37.2333 411.768 37.1C414.768 36.9667 417.735 36.9667 420.668 37.1C423.602 37.2333 426.535 37.5 429.468 37.9C432.402 38.2333 435.335 38.7 438.268 39.3C441.202 39.8333 444.135 40.4333 447.068 41.1C450.002 41.7667 452.935 42.4333 455.868 43.1C458.802 43.8333 461.768 44.5333 464.768 45.2C467.702 45.8667 470.702 46.5 473.768 47.1C476.835 47.7 479.902 48.2 482.968 48.6C486.102 49.0667 489.235 49.4667 492.368 49.8C495.568 50.0667 498.735 50.3333 501.868 50.6C505.068 50.8667 508.202 51.1667 511.268 51.5C514.402 51.7667 517.502 52.1333 520.568 52.6C523.568 53 526.535 53.5333 529.468 54.2C532.335 54.8667 535.135 55.6667 537.868 56.6C540.602 57.6 543.202 58.7667 545.668 60.1C548.135 61.4333 550.502 63 552.768 64.8C555.035 66.6 557.168 68.5667 559.168 70.7C561.168 72.8333 563.035 75.1 564.768 77.5C566.568 79.9667 568.235 82.5333 569.768 85.2C571.368 87.8667 572.835 90.6333 574.168 93.5C575.502 96.3667 576.735 99.3 577.868 102.3C579.002 105.3 580.068 108.3 581.068 111.3C582.002 114.367 582.868 117.433 583.668 120.5C584.468 123.567 585.168 126.667 585.768 129.8C586.435 132.933 587.035 136.067 587.568 139.2C588.102 142.333 588.568 145.467 588.968 148.6C589.435 151.8 589.835 155 590.168 158.2C590.568 161.4 590.935 164.633 591.268 167.9C591.602 171.1 591.935 174.367 592.268 177.7C592.602 180.967 592.935 184.267 593.268 187.6C593.602 190.933 593.902 194.267 594.168 197.6C594.435 200.933 594.635 204.233 594.768 207.5C594.968 210.767 595.035 214 594.968 217.2C594.902 220.4 594.702 223.533 594.368 226.6C594.035 229.667 593.568 232.667 592.968 235.6C592.302 238.533 591.435 241.333 590.368 244C589.302 246.733 588.002 249.333 586.468 251.8Z" fill="#1B47E6"/>
<path fill-rule="evenodd" clip-rule="evenodd" d="M413.457 301.919C411.457 302.786 409.191 303.452 406.657 303.919C404.124 304.319 401.391 304.519 398.457 304.519C395.457 304.519 392.257 304.352 388.857 304.019C385.457 303.619 381.857 303.119 378.057 302.519C374.324 301.852 370.457 301.086 366.457 300.219C362.391 299.352 358.224 298.386 353.957 297.319C349.691 296.252 345.324 295.119 340.857 293.919C336.457 292.786 331.957 291.586 327.357 290.319C322.824 289.119 318.257 287.919 313.657 286.719C309.057 285.519 304.457 284.352 299.857 283.219C295.257 282.086 290.691 281.019 286.157 280.019C281.624 279.019 277.157 278.119 272.757 277.319C268.357 276.452 264.024 275.719 259.757 275.119C255.491 274.519 251.324 274.019 247.257 273.619C243.191 273.152 239.191 272.752 235.257 272.419C231.324 272.152 227.491 271.886 223.757 271.619C220.024 271.419 216.391 271.219 212.857 271.019C209.324 270.819 205.857 270.652 202.457 270.519C199.124 270.319 195.857 270.086 192.657 269.819C189.524 269.619 186.457 269.386 183.457 269.119C180.524 268.786 177.657 268.419 174.857 268.019C172.124 267.619 169.491 267.119 166.957 266.519C164.424 265.919 161.991 265.219 159.657 264.419C157.324 263.686 155.124 262.786 153.057 261.719C150.924 260.719 148.924 259.586 147.057 258.319C145.191 256.986 143.457 255.552 141.857 254.019C140.191 252.486 138.691 250.852 137.357 249.119C135.957 247.319 134.657 245.452 133.457 243.519C132.324 241.586 131.291 239.586 130.357 237.519C129.424 235.452 128.624 233.286 127.957 231.019C127.224 228.819 126.624 226.586 126.157 224.319C125.757 221.986 125.424 219.652 125.157 217.319C124.957 214.986 124.857 212.652 124.857 210.319C124.857 207.919 124.991 205.552 125.257 203.219C125.457 200.886 125.824 198.552 126.357 196.219C126.824 193.886 127.391 191.619 128.057 189.419C128.791 187.219 129.624 185.052 130.557 182.919C131.557 180.786 132.624 178.719 133.757 176.719C134.957 174.719 136.224 172.786 137.557 170.919C138.891 168.986 140.324 167.086 141.857 165.219C143.391 163.352 145.024 161.486 146.757 159.619C148.424 157.819 150.157 155.986 151.957 154.119C153.757 152.319 155.624 150.486 157.557 148.619C159.424 146.752 161.357 144.852 163.357 142.919C165.357 140.986 167.357 139.019 169.357 137.019C171.424 135.019 173.457 132.952 175.457 130.819C177.524 128.686 179.591 126.486 181.657 124.219C183.724 121.952 185.757 119.586 187.757 117.119C189.757 114.652 191.757 112.119 193.757 109.519C195.757 106.852 197.691 104.086 199.557 101.219C201.491 98.3522 203.391 95.3856 205.257 92.3189C207.124 89.2522 208.957 86.1522 210.757 83.0189C212.557 79.8856 214.357 76.7189 216.157 73.5189C218.024 70.3189 219.857 67.1189 221.657 63.9189C223.457 60.7189 225.257 57.5522 227.057 54.4189C228.924 51.2856 230.791 48.2522 232.657 45.3189C234.524 42.3189 236.424 39.4189 238.357 36.6189C240.357 33.8189 242.357 31.1522 244.357 28.6189C246.424 26.0856 248.524 23.7189 250.657 21.5189C252.791 19.2522 254.957 17.2189 257.157 15.4189C259.424 13.5522 261.757 11.9189 264.157 10.5189C266.557 9.11891 269.057 7.95224 271.657 7.01891C274.191 6.08558 276.824 5.41891 279.557 5.01891C282.291 4.61891 285.057 4.45224 287.857 4.51891C290.724 4.58558 293.624 4.88558 296.557 5.41891C299.424 5.88558 302.357 6.58558 305.357 7.51891C308.291 8.38558 311.224 9.45224 314.157 10.7189C317.091 11.9856 320.024 13.4189 322.957 15.0189C325.891 16.6189 328.791 18.3189 331.657 20.1189C334.457 21.9856 337.224 23.9856 339.957 26.1189C342.691 28.2522 345.357 30.4856 347.957 32.8189C350.557 35.0856 353.024 37.4856 355.357 40.0189C357.757 42.4856 360.057 45.0189 362.257 47.6189C364.391 50.2856 366.391 52.9856 368.257 55.7189C370.191 58.3856 371.957 61.1189 373.557 63.9189C375.157 66.7189 376.624 69.5522 377.957 72.4189C379.291 75.2189 380.524 78.0856 381.657 81.0189C382.724 83.9522 383.724 86.8856 384.657 89.8189C385.591 92.8189 386.424 95.8522 387.157 98.9189C387.957 101.986 388.657 105.086 389.257 108.219C389.924 111.352 390.557 114.519 391.157 117.719C391.691 120.986 392.224 124.286 392.757 127.619C393.291 130.886 393.824 134.252 394.357 137.719C394.891 141.119 395.457 144.552 396.057 148.019C396.591 151.552 397.191 155.119 397.857 158.719C398.457 162.319 399.124 165.986 399.857 169.719C400.657 173.452 401.491 177.252 402.357 181.119C403.291 184.919 404.257 188.786 405.257 192.719C406.324 196.652 407.391 200.586 408.457 204.519C409.591 208.519 410.724 212.486 411.857 216.419C412.991 220.352 414.091 224.252 415.157 228.119C416.224 231.986 417.257 235.786 418.257 239.519C419.257 243.319 420.157 246.986 420.957 250.519C421.757 254.119 422.457 257.586 423.057 260.919C423.657 264.252 424.124 267.486 424.457 270.619C424.724 273.686 424.857 276.586 424.857 279.319C424.791 282.052 424.557 284.586 424.157 286.919C423.691 289.319 423.024 291.452 422.157 293.319C421.224 295.252 420.057 296.952 418.657 298.419C417.191 299.819 415.457 300.986 413.457 301.919Z" fill="#6197FF"/>
<path fill-rule="evenodd" clip-rule="evenodd" d="M361.787 176.517C360.765 179.309 359.462 182.127 357.876 184.971C356.342 187.857 354.573 190.765 352.57 193.694C350.566 196.624 348.328 199.575 345.855 202.547C343.424 205.468 340.832 208.428 338.077 211.426C335.271 214.382 332.299 217.329 329.16 220.268C326.072 223.249 322.818 226.222 319.398 229.187C316.071 232.143 312.621 235.039 309.046 237.876C305.429 240.764 301.74 243.635 297.978 246.489C294.258 249.291 290.467 252.077 286.602 254.846C282.78 257.563 278.933 260.259 275.059 262.934C271.135 265.566 267.206 268.151 263.273 270.69C259.383 273.177 255.488 275.617 251.589 278.01C247.733 280.352 243.919 282.642 240.148 284.882C236.42 287.07 232.755 289.181 229.155 291.215C225.503 293.207 221.941 295.143 218.468 297.024C215.038 298.853 211.672 300.606 208.37 302.281C205.068 303.957 201.826 305.509 198.643 306.937C195.512 308.407 192.466 309.775 189.505 311.041C186.544 312.307 183.647 313.495 180.814 314.607C177.981 315.719 175.233 316.729 172.571 317.636C169.866 318.594 167.267 319.424 164.775 320.126C162.241 320.879 159.77 321.555 157.363 322.154C154.999 322.703 152.699 323.174 150.463 323.568C148.27 323.911 146.119 324.203 144.011 324.444C141.946 324.633 139.944 324.746 138.006 324.782C136.018 324.775 134.118 324.712 132.309 324.594C130.542 324.425 128.817 324.204 127.135 323.932C125.445 323.567 123.844 323.145 122.333 322.669C120.822 322.192 119.349 321.617 117.914 320.944C116.48 320.27 115.135 319.542 113.879 318.757C112.573 317.93 111.305 317.005 110.075 315.982C108.845 314.959 107.657 313.884 106.513 312.758C105.368 311.632 104.24 310.434 103.13 309.163C101.925 307.901 100.784 306.562 99.7078 305.145C98.5799 303.687 97.4734 302.202 96.3881 300.692C95.2516 299.14 94.0852 297.519 92.8889 295.83C91.7864 294.132 90.6327 292.392 89.4278 290.609C88.2228 288.826 86.9623 286.953 85.6462 284.991C84.3814 283.071 83.0654 281.109 81.698 279.104C80.3307 277.099 78.8865 275.03 77.3655 272.898C75.8871 270.714 74.3361 268.513 72.7125 266.295C71.0464 264.128 69.3246 261.872 67.5473 259.526C65.7274 257.231 63.8306 254.872 61.8569 252.45C59.8832 250.027 57.8626 247.609 55.795 245.195C53.7188 242.687 51.5957 240.183 49.4256 237.684C47.247 235.091 45.0683 232.498 42.8896 229.905C40.7109 227.311 38.5536 224.693 36.4175 222.048C34.2389 219.455 32.1285 216.832 30.0863 214.179C28.0868 211.475 26.1129 208.792 24.1646 206.13C22.259 203.417 20.4729 200.717 18.8063 198.03C17.0458 195.351 15.4262 192.659 13.9473 189.954C12.5111 187.198 11.2201 184.476 10.0742 181.789C8.83436 179.109 7.82927 176.409 7.0589 173.686C6.24589 171.015 5.62496 168.374 5.19611 165.762C4.8099 163.099 4.63708 160.441 4.67766 157.786C4.76949 155.174 5.07472 152.566 5.59335 149.962C6.16323 147.401 6.99775 144.887 8.09692 142.419C9.23872 139.9 10.6196 137.406 12.2394 134.938C13.9105 132.513 15.795 130.091 17.8929 127.674C20.042 125.299 22.3876 123.001 24.9295 120.78C27.4628 118.465 30.2138 116.201 33.1825 113.988C36.0573 111.783 39.1285 109.655 42.3961 107.604C45.6125 105.51 48.9996 103.472 52.5574 101.489C56.064 99.463 59.6988 97.5438 63.4616 95.7312C67.1732 93.876 71.0087 92.0805 74.9679 90.3446C78.8332 88.6173 82.7755 86.954 86.7946 85.3546C90.8137 83.7553 94.8883 82.2455 99.0185 80.8253C103.097 79.3624 107.185 77.9935 111.281 76.7184C115.377 75.4433 119.482 74.2622 123.596 73.1749C127.658 72.0449 131.703 70.9876 135.731 70.0028C139.716 69.0692 143.638 68.2125 147.496 67.4327C151.31 66.7042 155.061 66.0525 158.748 65.4777C162.478 64.8516 166.101 64.3537 169.618 63.9839C173.228 63.6055 176.749 63.2826 180.18 63.0153C183.62 62.8418 186.991 62.6983 190.294 62.5848C193.649 62.5138 196.918 62.5454 200.102 62.6794C203.38 62.8049 206.594 63.0072 209.744 63.2864C212.885 63.4717 216.014 63.7765 219.13 64.2009C222.152 64.6338 225.204 65.135 228.285 65.7045C231.316 66.2313 234.308 66.8563 237.262 67.5795C240.259 68.2515 243.264 69.0173 246.278 69.8771C249.24 70.6942 252.186 71.5838 255.115 72.5461C258.043 73.5083 261.002 74.5388 263.99 75.6375C266.927 76.6937 269.894 77.8181 272.891 79.0107C275.888 80.2033 278.868 81.4685 281.831 82.8063C284.888 84.1355 287.924 85.4903 290.938 86.8707C293.961 88.345 296.984 89.8193 300.006 91.2936C303.038 92.8618 306.048 94.4556 309.037 96.0751C311.932 97.7031 314.831 99.3781 317.734 101.1C320.595 102.873 323.388 104.676 326.112 106.509C328.837 108.342 331.471 110.231 334.017 112.175C336.562 114.119 338.97 116.123 341.243 118.187C343.557 120.2 345.736 122.272 347.777 124.405C349.819 126.537 351.703 128.755 353.429 131.058C355.147 133.268 356.681 135.541 358.031 137.879C359.424 140.165 360.613 142.542 361.596 145.008C362.58 147.474 363.329 149.961 363.843 152.47C364.357 154.98 364.641 157.557 364.694 160.203C364.747 162.849 364.54 165.496 364.073 168.142C363.614 170.882 362.852 173.674 361.787 176.517Z" fill="#415ADF"/>
</g>
<defs>
<filter id="filter0_f_2_7" x="0.671875" y="0.504623" width="598.32" height="340.524" filterUnits="userSpaceOnUse" color-interpolation-filters="sRGB">
<feFlood flood-opacity="0" result="BackgroundImageFix"/>
<feBlend mode="normal" in="SourceGraphic" in2="BackgroundImageFix" result="shape"/>
<feGaussianBlur stdDeviation="2" result="effect1_foregroundBlur_2_7"/>
</filter>
</defs>
</svg>
