<svg width="309" height="309" viewBox="0 0 309 309" fill="none" xmlns="http://www.w3.org/2000/svg">
<g style="mix-blend-mode:multiply" filter="url(#filter0_f_2_4)">
<path fill-rule="evenodd" clip-rule="evenodd" d="M293.455 301.919C291.455 302.786 289.189 303.452 286.655 303.919C284.122 304.319 281.389 304.519 278.455 304.519C275.455 304.519 272.255 304.352 268.855 304.019C265.455 303.619 261.855 303.119 258.055 302.519C254.322 301.852 250.455 301.086 246.455 300.219C242.389 299.352 238.222 298.386 233.955 297.319C229.689 296.252 225.322 295.119 220.855 293.919C216.455 292.786 211.955 291.586 207.355 290.319C202.822 289.119 198.255 287.919 193.655 286.719C189.055 285.519 184.455 284.352 179.855 283.219C175.255 282.086 170.689 281.019 166.155 280.019C161.622 279.019 157.155 278.119 152.755 277.319C148.355 276.452 144.022 275.719 139.755 275.119C135.489 274.519 131.322 274.019 127.255 273.619C123.189 273.152 119.189 272.752 115.255 272.419C111.322 272.152 107.489 271.886 103.755 271.619C100.022 271.419 96.3888 271.219 92.8555 271.019C89.3221 270.819 85.8555 270.652 82.4555 270.519C79.1221 270.319 75.8555 270.086 72.6555 269.819C69.5221 269.619 66.4555 269.386 63.4555 269.119C60.5221 268.786 57.6555 268.419 54.8555 268.019C52.1221 267.619 49.4888 267.119 46.9555 266.519C44.4221 265.919 41.9888 265.219 39.6555 264.419C37.3221 263.686 35.1221 262.786 33.0555 261.719C30.9221 260.719 28.9221 259.586 27.0555 258.319C25.1888 256.986 23.4555 255.552 21.8555 254.019C20.1888 252.486 18.6888 250.852 17.3555 249.119C15.9555 247.319 14.6555 245.452 13.4555 243.519C12.3221 241.586 11.2888 239.586 10.3555 237.519C9.42214 235.452 8.62214 233.286 7.95547 231.019C7.22214 228.819 6.62214 226.586 6.15547 224.319C5.75547 221.986 5.42214 219.652 5.15547 217.319C4.95547 214.986 4.85547 212.652 4.85547 210.319C4.85547 207.919 4.9888 205.552 5.25547 203.219C5.45547 200.886 5.82214 198.552 6.35547 196.219C6.82214 193.886 7.3888 191.619 8.05547 189.419C8.7888 187.219 9.62214 185.052 10.5555 182.919C11.5555 180.786 12.6221 178.719 13.7555 176.719C14.9555 174.719 16.2221 172.786 17.5555 170.919C18.8888 168.986 20.3221 167.086 21.8555 165.219C23.3888 163.352 25.0221 161.486 26.7555 159.619C28.4221 157.819 30.1555 155.986 31.9555 154.119C33.7555 152.319 35.6221 150.486 37.5555 148.619C39.4221 146.752 41.3555 144.852 43.3555 142.919C45.3555 140.986 47.3555 139.019 49.3555 137.019C51.4221 135.019 53.4555 132.952 55.4555 130.819C57.5221 128.686 59.5888 126.486 61.6555 124.219C63.7221 121.952 65.7555 119.586 67.7555 117.119C69.7555 114.652 71.7555 112.119 73.7555 109.519C75.7555 106.852 77.6888 104.086 79.5555 101.219C81.4888 98.3522 83.3888 95.3856 85.2555 92.3189C87.1221 89.2522 88.9555 86.1522 90.7555 83.0189C92.5555 79.8856 94.3555 76.7189 96.1555 73.5189C98.0221 70.3189 99.8555 67.1189 101.655 63.9189C103.455 60.7189 105.255 57.5522 107.055 54.4189C108.922 51.2856 110.789 48.2522 112.655 45.3189C114.522 42.3189 116.422 39.4189 118.355 36.6189C120.355 33.8189 122.355 31.1522 124.355 28.6189C126.422 26.0856 128.522 23.7189 130.655 21.5189C132.789 19.2522 134.955 17.2189 137.155 15.4189C139.422 13.5522 141.755 11.9189 144.155 10.5189C146.555 9.11891 149.055 7.95224 151.655 7.01891C154.189 6.08558 156.822 5.41891 159.555 5.01891C162.289 4.61891 165.055 4.45224 167.855 4.51891C170.722 4.58558 173.622 4.88558 176.555 5.41891C179.422 5.88558 182.355 6.58558 185.355 7.51891C188.289 8.38558 191.222 9.45224 194.155 10.7189C197.089 11.9856 200.022 13.4189 202.955 15.0189C205.889 16.6189 208.789 18.3189 211.655 20.1189C214.455 21.9856 217.222 23.9856 219.955 26.1189C222.689 28.2522 225.355 30.4856 227.955 32.8189C230.555 35.0856 233.022 37.4856 235.355 40.0189C237.755 42.4856 240.055 45.0189 242.255 47.6189C244.389 50.2856 246.389 52.9856 248.255 55.7189C250.189 58.3856 251.955 61.1189 253.555 63.9189C255.155 66.7189 256.622 69.5522 257.955 72.4189C259.289 75.2189 260.522 78.0856 261.655 81.0189C262.722 83.9522 263.722 86.8856 264.655 89.8189C265.589 92.8189 266.422 95.8522 267.155 98.9189C267.955 101.986 268.655 105.086 269.255 108.219C269.922 111.352 270.555 114.519 271.155 117.719C271.689 120.986 272.222 124.286 272.755 127.619C273.289 130.886 273.822 134.252 274.355 137.719C274.889 141.119 275.455 144.552 276.055 148.019C276.589 151.552 277.189 155.119 277.855 158.719C278.455 162.319 279.122 165.986 279.855 169.719C280.655 173.452 281.489 177.252 282.355 181.119C283.289 184.919 284.255 188.786 285.255 192.719C286.322 196.652 287.389 200.586 288.455 204.519C289.589 208.519 290.722 212.486 291.855 216.419C292.989 220.352 294.089 224.252 295.155 228.119C296.222 231.986 297.255 235.786 298.255 239.519C299.255 243.319 300.155 246.986 300.955 250.519C301.755 254.119 302.455 257.586 303.055 260.919C303.655 264.252 304.122 267.486 304.455 270.619C304.722 273.686 304.855 276.586 304.855 279.319C304.789 282.052 304.555 284.586 304.155 286.919C303.689 289.319 303.022 291.452 302.155 293.319C301.222 295.252 300.055 296.952 298.655 298.419C297.189 299.819 295.455 300.986 293.455 301.919Z" fill="#6197FF"/>
</g>
<defs>
<filter id="filter0_f_2_4" x="0.855469" y="0.504623" width="308" height="308.014" filterUnits="userSpaceOnUse" color-interpolation-filters="sRGB">
<feFlood flood-opacity="0" result="BackgroundImageFix"/>
<feBlend mode="normal" in="SourceGraphic" in2="BackgroundImageFix" result="shape"/>
<feGaussianBlur stdDeviation="2" result="effect1_foregroundBlur_2_4"/>
</filter>
</defs>
</svg>
