<svg width="308" height="309" viewBox="0 0 308 309" fill="none" xmlns="http://www.w3.org/2000/svg">
<g style="mix-blend-mode:multiply" filter="url(#filter0_f_2_5)">
<path fill-rule="evenodd" clip-rule="evenodd" d="M295.467 218.8C294 221.2 292.3 223.533 290.367 225.8C288.5 228.067 286.433 230.267 284.167 232.4C281.967 234.533 279.667 236.633 277.267 238.7C274.8 240.7 272.267 242.733 269.667 244.8C267.067 246.8 264.433 248.8 261.767 250.8C259.1 252.867 256.467 254.933 253.867 257C251.2 259.133 248.6 261.333 246.067 263.6C243.467 265.8 240.933 268.067 238.467 270.4C235.933 272.667 233.467 274.933 231.067 277.2C228.6 279.467 226.167 281.667 223.767 283.8C221.3 286 218.833 288.067 216.367 290C213.9 291.867 211.4 293.633 208.867 295.3C206.333 296.9 203.767 298.3 201.167 299.5C198.567 300.7 195.9 301.667 193.167 302.4C190.433 303.133 187.633 303.6 184.767 303.8C181.9 304.067 179 304.1 176.067 303.9C173.2 303.633 170.3 303.233 167.367 302.7C164.367 302.1 161.4 301.333 158.467 300.4C155.6 299.467 152.733 298.4 149.867 297.2C147 296 144.167 294.667 141.367 293.2C138.567 291.8 135.867 290.3 133.267 288.7C130.667 287.033 128.1 285.333 125.567 283.6C123.1 281.867 120.633 280.1 118.167 278.3C115.767 276.433 113.367 274.567 110.967 272.7C108.567 270.833 106.167 268.967 103.767 267.1C101.367 265.233 98.9333 263.367 96.4667 261.5C94 259.633 91.4667 257.833 88.8667 256.1C86.2667 254.367 83.5667 252.667 80.7667 251C77.9667 249.333 75.1333 247.733 72.2667 246.2C69.3333 244.667 66.3333 243.167 63.2667 241.7C60.2667 240.233 57.2667 238.733 54.2667 237.2C51.2667 235.733 48.3 234.2 45.3667 232.6C42.4333 231 39.6 229.333 36.8667 227.6C34.0667 225.867 31.4 224 28.8667 222C26.4 220 24.0667 217.867 21.8667 215.6C19.6667 213.4 17.6667 211 15.8667 208.4C14.0667 205.8 12.4667 203.1 11.0667 200.3C9.66667 197.433 8.46667 194.5 7.46667 191.5C6.46667 188.5 5.66667 185.4 5.06667 182.2C4.53333 179.067 4.2 175.9 4.06667 172.7C3.93333 169.5 4 166.3 4.26667 163.1C4.6 159.9 5.13333 156.733 5.86667 153.6C6.6 150.467 7.56667 147.4 8.76667 144.4C9.96667 141.4 11.3333 138.433 12.8667 135.5C14.4 132.567 16.0333 129.667 17.7667 126.8C19.5667 123.933 21.4 121.1 23.2667 118.3C25.2 115.433 27.1333 112.567 29.0667 109.7C31 106.833 32.9 103.967 34.7667 101.1C36.6333 98.1667 38.4333 95.2333 40.1667 92.3C41.8333 89.3 43.4 86.2667 44.8667 83.2C46.3333 80.0667 47.7 76.9333 48.9667 73.8C50.2333 70.7333 51.4333 67.6333 52.5667 64.5C53.7667 61.3667 54.9333 58.3 56.0667 55.3C57.2 52.2333 58.3667 49.2667 59.5667 46.4C60.8333 43.4667 62.1667 40.6667 63.5667 38C64.9 35.3333 66.4 32.8 68.0667 30.4C69.7333 28 71.5333 25.7667 73.4667 23.7C75.4667 21.6333 77.6 19.7333 79.8667 18C82.1333 16.2667 84.5 14.7 86.9667 13.3C89.5 11.9 92.1333 10.6667 94.8667 9.6C97.6 8.53333 100.367 7.6 103.167 6.8C106.033 6.06667 108.933 5.46667 111.867 5C114.867 4.53333 117.833 4.23333 120.767 4.1C123.767 3.96667 126.733 3.96667 129.667 4.1C132.6 4.23333 135.533 4.5 138.467 4.9C141.4 5.23333 144.333 5.7 147.267 6.3C150.2 6.83333 153.133 7.43333 156.067 8.1C159 8.76667 161.933 9.43333 164.867 10.1C167.8 10.8333 170.767 11.5333 173.767 12.2C176.7 12.8667 179.7 13.5 182.767 14.1C185.833 14.7 188.9 15.2 191.967 15.6C195.1 16.0667 198.233 16.4667 201.367 16.8C204.567 17.0667 207.733 17.3333 210.867 17.6C214.067 17.8667 217.2 18.1667 220.267 18.5C223.4 18.7667 226.5 19.1333 229.567 19.6C232.567 20 235.533 20.5333 238.467 21.2C241.333 21.8667 244.133 22.6667 246.867 23.6C249.6 24.6 252.2 25.7667 254.667 27.1C257.133 28.4333 259.5 30 261.767 31.8C264.033 33.6 266.167 35.5667 268.167 37.7C270.167 39.8333 272.033 42.1 273.767 44.5C275.567 46.9667 277.233 49.5333 278.767 52.2C280.367 54.8667 281.833 57.6333 283.167 60.5C284.5 63.3667 285.733 66.3 286.867 69.3C288 72.3 289.067 75.3 290.067 78.3C291 81.3667 291.867 84.4333 292.667 87.5C293.467 90.5667 294.167 93.6667 294.767 96.8C295.433 99.9333 296.033 103.067 296.567 106.2C297.1 109.333 297.567 112.467 297.967 115.6C298.433 118.8 298.833 122 299.167 125.2C299.567 128.4 299.933 131.633 300.267 134.9C300.6 138.1 300.933 141.367 301.267 144.7C301.6 147.967 301.933 151.267 302.267 154.6C302.6 157.933 302.9 161.267 303.167 164.6C303.433 167.933 303.633 171.233 303.767 174.5C303.967 177.767 304.033 181 303.967 184.2C303.9 187.4 303.7 190.533 303.367 193.6C303.033 196.667 302.567 199.667 301.967 202.6C301.3 205.533 300.433 208.333 299.367 211C298.3 213.733 297 216.333 295.467 218.8Z" fill="#1B47E6"/>
</g>
<defs>
<filter id="filter0_f_2_5" x="0" y="0" width="307.992" height="308.029" filterUnits="userSpaceOnUse" color-interpolation-filters="sRGB">
<feFlood flood-opacity="0" result="BackgroundImageFix"/>
<feBlend mode="normal" in="SourceGraphic" in2="BackgroundImageFix" result="shape"/>
<feGaussianBlur stdDeviation="2" result="effect1_foregroundBlur_2_5"/>
</filter>
</defs>
</svg>
