<svg width="369" height="271" viewBox="0 0 369 271" fill="none" xmlns="http://www.w3.org/2000/svg">
<g style="mix-blend-mode:multiply" filter="url(#filter0_f_2_6)">
<path fill-rule="evenodd" clip-rule="evenodd" d="M361.786 118.517C360.764 121.309 359.46 124.127 357.874 126.971C356.34 129.857 354.571 132.765 352.568 135.694C350.564 138.624 348.326 141.575 345.853 144.547C343.422 147.468 340.83 150.428 338.075 153.426C335.269 156.382 332.297 159.329 329.158 162.268C326.07 165.249 322.816 168.222 319.396 171.187C316.069 174.143 312.619 177.039 309.044 179.876C305.428 182.764 301.738 185.635 297.976 188.489C294.257 191.291 290.465 194.077 286.6 196.846C282.778 199.563 278.931 202.259 275.058 204.934C271.133 207.566 267.205 210.151 263.272 212.69C259.381 215.177 255.487 217.617 251.588 220.01C247.731 222.352 243.918 224.642 240.147 226.882C236.418 229.07 232.754 231.181 229.153 233.215C225.501 235.207 221.939 237.143 218.467 239.024C215.037 240.853 211.671 242.606 208.369 244.281C205.067 245.957 201.824 247.509 198.642 248.937C195.51 250.407 192.464 251.775 189.503 253.041C186.542 254.307 183.645 255.495 180.812 256.607C177.979 257.719 175.231 258.729 172.569 259.635C169.864 260.594 167.265 261.424 164.773 262.126C162.239 262.879 159.768 263.555 157.362 264.154C154.998 264.703 152.698 265.174 150.462 265.568C148.268 265.911 146.117 266.203 144.009 266.444C141.944 266.633 139.942 266.746 138.005 266.782C136.016 266.775 134.116 266.712 132.307 266.594C130.54 266.425 128.815 266.204 127.134 265.932C125.443 265.567 123.842 265.145 122.331 264.669C120.82 264.192 119.347 263.617 117.913 262.944C116.478 262.27 115.133 261.542 113.878 260.757C112.571 259.93 111.303 259.005 110.073 257.982C108.843 256.959 107.655 255.884 106.511 254.758C105.366 253.632 104.238 252.434 103.128 251.163C101.923 249.901 100.783 248.562 99.706 247.145C98.5781 245.687 97.4716 244.202 96.3864 242.692C95.2499 241.14 94.0835 239.519 92.8871 237.83C91.7846 236.132 90.6309 234.392 89.426 232.609C88.221 230.826 86.9605 228.953 85.6445 226.991C84.3796 225.071 83.0636 223.109 81.6963 221.104C80.329 219.099 78.8848 217.031 77.3637 214.898C75.8853 212.714 74.3343 210.513 72.7108 208.295C71.0446 206.128 69.3228 203.872 67.5455 201.526C65.7256 199.231 63.8288 196.872 61.8551 194.45C59.8814 192.027 57.8608 189.609 55.7932 187.195C53.7171 184.687 51.5939 182.183 49.4239 179.684C47.2452 177.091 45.0665 174.498 42.8878 171.905C40.7092 169.311 38.5518 166.693 36.4158 164.048C34.2371 161.455 32.1267 158.832 30.0845 156.179C28.085 153.475 26.1111 150.792 24.1629 148.13C22.2573 145.417 20.4711 142.717 18.8045 140.03C17.044 137.351 15.4244 134.659 13.9456 131.954C12.5094 129.198 11.2183 126.476 10.0724 123.789C8.83259 121.109 7.8275 118.409 7.05713 115.686C6.24412 113.015 5.62319 110.374 5.19434 107.762C4.80812 105.099 4.63531 102.441 4.67589 99.7859C4.76772 97.1739 5.07295 94.566 5.59158 91.9622C6.16145 89.401 6.99597 86.8865 8.09514 84.4188C9.23695 81.8999 10.6178 79.4063 12.2376 76.9382C13.9087 74.5127 15.7932 72.0913 17.8911 69.674C20.0403 67.2994 22.3858 65.0014 24.9277 62.7801C27.461 60.4649 30.212 58.2007 33.1807 55.9876C36.0556 53.7831 39.1268 51.6553 42.3944 49.6041C45.6107 47.5103 48.9978 45.4718 52.5557 43.4887C56.0623 41.463 59.697 39.5438 63.4599 37.7312C67.1715 35.876 71.0069 34.0805 74.9661 32.3446C78.8315 30.6173 82.7737 28.954 86.7928 27.3546C90.8119 25.7553 94.8865 24.2455 99.0167 22.8253C103.096 21.3624 107.183 19.9935 111.279 18.7184C115.376 17.4433 119.48 16.2622 123.594 15.1749C127.656 14.0449 131.701 12.9876 135.729 12.0028C139.715 11.0692 143.636 10.2125 147.494 9.43274C151.309 8.70419 155.06 8.05251 158.747 7.4777C162.476 6.85164 166.099 6.3537 169.616 5.98388C173.226 5.60546 176.747 5.28258 180.178 5.01527C183.618 4.84183 186.989 4.69833 190.293 4.58475C193.647 4.51382 196.916 4.54538 200.1 4.67944C203.378 4.80489 206.592 5.00721 209.742 5.28641C212.883 5.47172 216.012 5.77654 219.128 6.20087C222.15 6.63381 225.202 7.13501 228.284 7.70447C231.314 8.2313 234.307 8.85632 237.261 9.57953C240.257 10.2515 243.262 11.0173 246.276 11.8771C249.239 12.6942 252.184 13.5838 255.113 14.5461C258.041 15.5083 261 16.5388 263.988 17.6375C266.925 18.6937 269.892 19.8181 272.889 21.0107C275.886 22.2033 278.866 23.4685 281.829 24.8063C284.886 26.1355 287.922 27.4903 290.936 28.8707C293.959 30.345 296.982 31.8193 300.005 33.2936C303.036 34.8618 306.046 36.4556 309.035 38.0751C311.93 39.7031 314.829 41.3781 317.733 43.1001C320.594 44.8732 323.386 46.6764 326.111 48.5094C328.835 50.3424 331.47 52.2311 334.015 54.1752C336.56 56.1194 338.969 58.1234 341.241 60.1872C343.556 62.1999 345.734 64.2723 347.776 66.4047C349.817 68.537 351.701 70.7548 353.427 73.0581C355.145 75.2675 356.679 77.5411 358.029 79.8788C359.422 82.1653 360.611 84.5416 361.594 87.0077C362.578 89.4738 363.327 91.9614 363.841 94.4705C364.355 96.9796 364.639 99.5572 364.692 102.203C364.745 104.849 364.538 107.496 364.071 110.142C363.612 112.882 362.85 115.674 361.786 118.517Z" fill="#415ADF"/>
</g>
<defs>
<filter id="filter0_f_2_6" x="0.671875" y="0.547928" width="368.027" height="270.234" filterUnits="userSpaceOnUse" color-interpolation-filters="sRGB">
<feFlood flood-opacity="0" result="BackgroundImageFix"/>
<feBlend mode="normal" in="SourceGraphic" in2="BackgroundImageFix" result="shape"/>
<feGaussianBlur stdDeviation="2" result="effect1_foregroundBlur_2_6"/>
</filter>
</defs>
</svg>
